<svg xmlns="http://www.w3.org/2000/svg" width="324" height="432" viewBox="0 0 54 72" xmlns:xlink="http://www.w3.org/1999/xlink"><defs><path id="a" fill="#ffc107" d="M0 0h1v1H0z"/><path id="b" fill="#ffc107" d="M2 0h1v1H2z"/><path id="c" fill="#ffc107" d="M0 1h1v1H0z"/><path id="d" fill="#FFEAE3" d="M1 1h1v1H1z"/><path id="e" fill="#ffc107" d="M2 1h1v1H2z"/><path id="f" fill="#FFEAE3" d="M0 2h1v1H0z"/><path id="g" fill="#FFEAE3" d="M1 2h1v1H1z"/><path id="h" fill="#FFEAE3" d="M2 2h1v1H2z"/><path id="i" fill="#ffc107" d="M3 2h1v1H3z"/><path id="j" fill="#ffc107" d="M4 2h1v1H4z"/><path id="k" fill="#c26e2d" d="M5 2h1v1H5z"/><path id="l" fill="#ffc107" d="M1 3h1v1H1z"/><path id="m" fill="#ffc107" d="M2 3h1v1H2z"/><path id="n" fill="#ffc107" d="M3 3h1v1H3z"/><path id="o" fill="#FFEAE3" d="M4 3h1v1H4z"/><path id="p" fill="#c26e2d" d="M5 3h1v1H5z"/><path id="q" d="M0 0h9v9H0z"/><path id="r" fill="#c26e2d" d="M5 0h1v1H5z"/><path id="s" fill="#ffc107" d="M1 1h1v1H1z"/><path id="t" fill="#ffc107" d="M3 1h1v1H3z"/><path id="u" fill="#c26e2d" d="M6 1h1v1H6z"/><path id="v" fill="#ffc107" d="M1 2h1v1H1z"/><path id="w" fill="#ffc107" d="M5 2h1v1H5z"/><path id="x" fill="#c26e2d" d="M6 2h1v1H6z"/><path id="y" fill="#ffc107" d="M0 3h1v1H0z"/><path id="z" fill="#FFEAE3" d="M1 3h1v1H1z"/><path id="A" fill="#FFEAE3" d="M2 3h1v1H2z"/><path id="B" fill="#FFEAE3" d="M3 3h1v1H3z"/><path id="C" fill="#ffc107" d="M4 3h1v1H4z"/><path id="D" fill="#ffc107" d="M5 3h1v1H5z"/><path id="E" fill="#ffc107" d="M6 3h1v1H6z"/><path id="F" fill="#FFEAE3" d="M0 4h1v1H0z"/><path id="G" fill="#c26e2d" d="M5 1h1v1H5z"/><path id="H" fill="#ffc107" d="M0 4h1v1H0z"/><path id="I" fill="#FFEAE3" d="M1 4h1v1H1z"/><path id="J" fill="#FFEAE3" d="M5 4h1v1H5z"/><path id="K" fill="#c26e2d" d="M4 0h1v1H4z"/><path id="L" fill="#c26e2d" d="M4 1h1v1H4z"/><path id="M" fill="#c26e2d" d="M2 4h1v1H2z"/><path id="N" fill="#FFEAE3" d="M3 4h1v1H3z"/><path id="O" fill="#c26e2d" d="M1 3h1v1H1z"/><path id="P" fill="#ffc107" d="M1 4h1v1H1z"/><path id="Q" fill="#FFEAE3" d="M2 4h1v1H2z"/><path id="R" fill="#FFEAE3" d="M4 4h1v1H4z"/></defs><g fill="none" fill-rule="evenodd"><g transform="translate(0 27)"><g fill-rule="nonzero" transform="translate(2 3)"><use href="#a"/><use href="#b"/><use href="#c"/><use href="#d"/><use href="#e"/><use href="#f"/><use href="#g"/><use href="#h"/><use href="#i"/><use href="#j"/><use href="#k"/><use href="#l"/><use href="#m"/><use href="#n"/><use href="#o"/><use href="#p"/></g><use href="#q"/></g><g transform="matrix(-1 0 0 1 9 63)"><g fill-rule="nonzero" transform="translate(2 3)"><use href="#a"/><use href="#b"/><use href="#c"/><use href="#d"/><use href="#e"/><use href="#f"/><use href="#g"/><use href="#h"/><use href="#i"/><use href="#j"/><use href="#k"/><use href="#l"/><use href="#m"/><use href="#n"/><use href="#o"/><use href="#p"/></g><use href="#q"/></g><g transform="translate(0 9)"><g fill-rule="nonzero" transform="translate(2 3)"><use href="#a"/><use href="#b"/><use href="#c"/><use href="#d"/><use href="#e"/><use href="#f"/><use href="#g"/><use href="#h"/><use href="#i"/><use href="#j"/><use href="#k"/><use href="#l"/><use href="#m"/><use href="#n"/><use href="#o"/><use href="#p"/></g><use href="#q"/></g><g transform="matrix(-1 0 0 1 9 45)"><g fill-rule="nonzero" transform="translate(2 3)"><use href="#a"/><use href="#b"/><use href="#c"/><use href="#d"/><use href="#e"/><use href="#f"/><use href="#g"/><use href="#h"/><use href="#i"/><use href="#j"/><use href="#k"/><use href="#l"/><use href="#m"/><use href="#n"/><use href="#o"/><use href="#p"/></g><use href="#q"/></g><g transform="translate(9 27)"><g fill-rule="nonzero" transform="translate(1 3)"><use href="#r"/><use href="#s"/><use href="#t"/><use href="#u"/><use href="#v"/><use href="#h"/><use href="#i"/><use href="#j"/><use href="#w"/><use href="#x"/><use href="#y"/><use href="#z"/><use href="#A"/><use href="#B"/><use href="#C"/><use href="#D"/><use href="#E"/></g><use href="#q"/></g><g transform="matrix(-1 0 0 1 18 63)"><g fill-rule="nonzero" transform="translate(1 3)"><use href="#r"/><use href="#s"/><use href="#t"/><use href="#u"/><use href="#v"/><use href="#h"/><use href="#i"/><use href="#j"/><use href="#w"/><use href="#x"/><use href="#y"/><use href="#z"/><use href="#A"/><use href="#B"/><use href="#C"/><use href="#D"/><use href="#E"/></g><use href="#q"/></g><g transform="translate(27 27)"><g fill-rule="nonzero" transform="translate(1 3)"><use href="#r"/><use href="#s"/><use href="#t"/><use href="#u"/><use href="#v"/><use href="#h"/><use href="#i"/><use href="#j"/><use href="#w"/><use href="#x"/><use href="#y"/><use href="#z"/><use href="#A"/><use href="#B"/><use href="#C"/><use href="#D"/><use href="#E"/></g><use href="#q"/></g><g transform="matrix(-1 0 0 1 36 63)"><g fill-rule="nonzero" transform="translate(1 3)"><use href="#r"/><use href="#s"/><use href="#t"/><use href="#u"/><use href="#v"/><use href="#h"/><use href="#i"/><use href="#j"/><use href="#w"/><use href="#x"/><use href="#y"/><use href="#z"/><use href="#A"/><use href="#B"/><use href="#C"/><use href="#D"/><use href="#E"/></g><use href="#q"/></g><g transform="translate(45 27)"><g fill-rule="nonzero" transform="translate(1 3)"><use href="#r"/><use href="#s"/><use href="#t"/><use href="#u"/><use href="#v"/><use href="#h"/><use href="#i"/><use href="#j"/><use href="#w"/><use href="#x"/><use href="#y"/><use href="#z"/><use href="#A"/><use href="#B"/><use href="#C"/><use href="#D"/><use href="#E"/></g><use href="#q"/></g><g transform="translate(18 27)"><g fill-rule="nonzero" transform="translate(1 3)"><use href="#r"/><use href="#s"/><use href="#t"/><use href="#u"/><use href="#v"/><use href="#h"/><use href="#i"/><use href="#j"/><use href="#w"/><use href="#x"/><use href="#z"/><use href="#A"/><use href="#B"/><use href="#C"/><use href="#D"/><use href="#E"/><use href="#F"/></g><use href="#q"/></g><g transform="matrix(-1 0 0 1 27 63)"><g fill-rule="nonzero" transform="translate(1 3)"><use href="#r"/><use href="#s"/><use href="#t"/><use href="#u"/><use href="#v"/><use href="#h"/><use href="#i"/><use href="#j"/><use href="#w"/><use href="#x"/><use href="#z"/><use href="#A"/><use href="#B"/><use href="#C"/><use href="#D"/><use href="#E"/><use href="#F"/></g><use href="#q"/></g><g transform="translate(36 27)"><g fill-rule="nonzero" transform="translate(1 3)"><use href="#r"/><use href="#s"/><use href="#t"/><use href="#u"/><use href="#v"/><use href="#h"/><use href="#i"/><use href="#j"/><use href="#w"/><use href="#x"/><use href="#z"/><use href="#A"/><use href="#B"/><use href="#C"/><use href="#D"/><use href="#E"/><use href="#F"/></g><use href="#q"/></g><g transform="matrix(-1 0 0 1 45 63)"><g fill-rule="nonzero" transform="translate(1 3)"><use href="#r"/><use href="#s"/><use href="#t"/><use href="#u"/><use href="#v"/><use href="#h"/><use href="#i"/><use href="#j"/><use href="#w"/><use href="#x"/><use href="#z"/><use href="#A"/><use href="#B"/><use href="#C"/><use href="#D"/><use href="#E"/><use href="#F"/></g><use href="#q"/></g><g transform="translate(0 18)"><g fill-rule="nonzero" transform="translate(2 2)"><use href="#a"/><use href="#b"/><use href="#r"/><use href="#c"/><use href="#d"/><use href="#e"/><use href="#G"/><use href="#f"/><use href="#g"/><use href="#h"/><use href="#i"/><use href="#j"/><use href="#l"/><use href="#m"/><use href="#n"/><use href="#C"/><use href="#H"/><use href="#I"/><use href="#J"/></g><use href="#q"/></g><g transform="matrix(-1 0 0 1 9 54)"><g fill-rule="nonzero" transform="translate(2 2)"><use href="#a"/><use href="#b"/><use href="#r"/><use href="#c"/><use href="#d"/><use href="#e"/><use href="#G"/><use href="#f"/><use href="#g"/><use href="#h"/><use href="#i"/><use href="#j"/><use href="#l"/><use href="#m"/><use href="#n"/><use href="#C"/><use href="#H"/><use href="#I"/><use href="#J"/></g><use href="#q"/></g><g transform="translate(9 18)"><g fill-rule="nonzero" transform="translate(2 2)"><use href="#a"/><use href="#b"/><use href="#K"/><use href="#c"/><use href="#d"/><use href="#e"/><use href="#L"/><use href="#f"/><use href="#g"/><use href="#h"/><use href="#i"/><use href="#j"/><use href="#l"/><use href="#m"/><use href="#n"/><use href="#C"/><use href="#M"/><use href="#N"/></g><use href="#q"/></g><g transform="matrix(-1 0 0 1 18 54)"><g fill-rule="nonzero" transform="translate(2 2)"><use href="#a"/><use href="#b"/><use href="#K"/><use href="#c"/><use href="#d"/><use href="#e"/><use href="#L"/><use href="#f"/><use href="#g"/><use href="#h"/><use href="#i"/><use href="#j"/><use href="#l"/><use href="#m"/><use href="#n"/><use href="#C"/><use href="#M"/><use href="#N"/></g><use href="#q"/></g><g fill-rule="nonzero" transform="translate(3 2)"><use href="#a"/><use href="#b"/><use href="#K"/><use href="#c"/><use href="#d"/><use href="#e"/><use href="#L"/><use href="#f"/><use href="#g"/><use href="#h"/><use href="#i"/><use href="#j"/><use href="#O"/><use href="#m"/><use href="#n"/><use href="#C"/><use href="#P"/><use href="#Q"/><use href="#R"/></g><use href="#q"/><g transform="matrix(-1 0 0 1 54 63)"><g fill-rule="nonzero" transform="translate(1 3)"><use href="#r"/><use href="#s"/><use href="#t"/><use href="#u"/><use href="#v"/><use href="#h"/><use href="#i"/><use href="#j"/><use href="#w"/><use href="#x"/><use href="#y"/><use href="#z"/><use href="#A"/><use href="#B"/><use href="#C"/><use href="#D"/><use href="#E"/></g><use href="#q"/></g><g transform="matrix(-1 0 0 1 9 36)"><g fill-rule="nonzero" transform="translate(3 2)"><use href="#a"/><use href="#b"/><use href="#K"/><use href="#c"/><use href="#d"/><use href="#e"/><use href="#L"/><use href="#f"/><use href="#g"/><use href="#h"/><use href="#i"/><use href="#j"/><use href="#O"/><use href="#m"/><use href="#n"/><use href="#C"/><use href="#P"/><use href="#Q"/><use href="#R"/></g><use href="#q"/></g></g></svg>