<svg xmlns="http://www.w3.org/2000/svg" viewBox="0 0 32 32"><path fill="rgba(255,182,105,1)" d="M0 0h1v1H0zm1 0h1v1H1zm1 0h1v1H2zm1 0h1v1H3zm1 0h1v1H4z"/><path fill="rgba(0,0,0,1)" d="M5 0h1v1H5z"/><path fill="rgba(135,52,0,1)" d="M6 0h1v1H6zm1 0h1v1H7zm1 0h1v1H8zm1 0h1v1H9zm1 0h1v1h-1zm1 0h1v1h-1zm1 0h1v1h-1zm1 0h1v1h-1zm1 0h1v1h-1zm1 0h1v1h-1zm1 0h1v1h-1zm1 0h1v1h-1zm1 0h1v1h-1zm1 0h1v1h-1zm1 0h1v1h-1zm1 0h1v1h-1zm1 0h1v1h-1zm1 0h1v1h-1zm1 0h1v1h-1zm1 0h1v1h-1z"/><path fill="rgba(0,0,0,1)" d="M26 0h1v1h-1z"/><path fill="rgba(255,182,105,1)" d="M27 0h1v1h-1zm1 0h1v1h-1zm1 0h1v1h-1zm1 0h1v1h-1zm1 0h1v1h-1z"/><path fill="rgba(0,0,0,1)" d="M0 1h1v1H0z"/><path fill="rgba(255,182,105,1)" d="M1 1h1v1H1zm1 0h1v1H2zm1 0h1v1H3zm1 0h1v1H4zm1 0h1v1H5z"/><path fill="rgba(0,0,0,1)" d="M6 1h1v1H6z"/><path fill="rgba(135,52,0,1)" d="M7 1h1v1H7zm1 0h1v1H8zm1 0h1v1H9zm1 0h1v1h-1zm1 0h1v1h-1zm1 0h1v1h-1z"/><path fill="rgba(0,0,0,1)" d="M13 1h1v1h-1zm1 0h1v1h-1zm1 0h1v1h-1zm1 0h1v1h-1zm1 0h1v1h-1zm1 0h1v1h-1zm1 0h1v1h-1z"/><path fill="rgba(135,52,0,1)" d="M20 1h1v1h-1zm1 0h1v1h-1zm1 0h1v1h-1zm1 0h1v1h-1zm1 0h1v1h-1z"/><path fill="rgba(0,0,0,1)" d="M25 1h1v1h-1z"/><path fill="rgba(255,182,105,1)" d="M26 1h1v1h-1zm1 0h1v1h-1zm1 0h1v1h-1zm1 0h1v1h-1zm1 0h1v1h-1z"/><path fill="rgba(0,0,0,1)" d="M31 1h1v1h-1z"/><path fill="rgba(255,255,255,1)" d="M0 2h1v1H0z"/><path fill="rgba(0,0,0,1)" d="M1 2h1v1H1z"/><path fill="rgba(255,182,105,1)" d="M2 2h1v1H2zm1 0h1v1H3zm1 0h1v1H4zm1 0h1v1H5z"/><path fill="rgba(0,0,0,1)" d="M6 2h1v1H6z"/><path fill="rgba(135,52,0,1)" d="M7 2h1v1H7zm1 0h1v1H8zm1 0h1v1H9z"/><path fill="rgba(0,0,0,1)" d="M10 2h1v1h-1zm1 0h1v1h-1zm1 0h1v1h-1z"/><path fill="rgba(255,182,105,1)" d="M13 2h1v1h-1z"/><path fill="rgba(135,52,0,1)" d="M14 2h1v1h-1zm1 0h1v1h-1zm1 0h1v1h-1zm1 0h1v1h-1z"/><path fill="rgba(255,182,105,1)" d="M18 2h1v1h-1z"/><path fill="rgba(135,52,0,1)" d="M19 2h1v1h-1z"/><path fill="rgba(0,0,0,1)" d="M20 2h1v1h-1zm1 0h1v1h-1zm1 0h1v1h-1z"/><path fill="rgba(135,52,0,1)" d="M23 2h1v1h-1z"/><path fill="rgba(0,0,0,1)" d="M24 2h1v1h-1z"/><path fill="rgba(255,182,105,1)" d="M25 2h1v1h-1zm1 0h1v1h-1zm1 0h1v1h-1zm1 0h1v1h-1zm1 0h1v1h-1z"/><path fill="rgba(0,0,0,1)" d="M30 2h1v1h-1z"/><path fill="rgba(255,255,255,1)" d="M31 2h1v1h-1zM0 3h1v1H0z"/><path fill="rgba(0,0,0,1)" d="M1 3h1v1H1z"/><path fill="rgba(255,182,105,1)" d="M2 3h1v1H2zm1 0h1v1H3zm1 0h1v1H4zm1 0h1v1H5zm1 0h1v1H6z"/><path fill="rgba(0,0,0,1)" d="M7 3h1v1H7zm1 0h1v1H8zm1 0h1v1H9z"/><path fill="rgba(255,182,105,1)" d="M10 3h1v1h-1z"/><path fill="rgba(135,52,0,1)" d="M11 3h1v1h-1zm1 0h1v1h-1z"/><path fill="rgba(255,182,105,1)" d="M13 3h1v1h-1z"/><path fill="rgba(135,52,0,1)" d="M14 3h1v1h-1zm1 0h1v1h-1zm1 0h1v1h-1zm1 0h1v1h-1z"/><path fill="rgba(255,182,105,1)" d="M18 3h1v1h-1z"/><path fill="rgba(135,52,0,1)" d="M19 3h1v1h-1zm1 0h1v1h-1z"/><path fill="rgba(255,182,105,1)" d="M21 3h1v1h-1z"/><path fill="rgba(135,52,0,1)" d="M22 3h1v1h-1z"/><path fill="rgba(0,0,0,1)" d="M23 3h1v1h-1z"/><path fill="rgba(255,182,105,1)" d="M24 3h1v1h-1zm1 0h1v1h-1zm1 0h1v1h-1zm1 0h1v1h-1zm1 0h1v1h-1z"/><path fill="rgba(0,0,0,1)" d="M29 3h1v1h-1z"/><path fill="rgba(255,255,255,1)" d="M30 3h1v1h-1zm1 0h1v1h-1zM0 4h1v1H0zm1 0h1v1H1z"/><path fill="rgba(0,0,0,1)" d="M2 4h1v1H2z"/><path fill="rgba(255,182,105,1)" d="M3 4h1v1H3zm1 0h1v1H4zm1 0h1v1H5zm1 0h1v1H6z"/><path fill="rgba(135,52,0,1)" d="M7 4h1v1H7z"/><path fill="rgba(255,182,105,1)" d="M8 4h1v1H8z"/><path fill="rgba(135,52,0,1)" d="M9 4h1v1H9z"/><path fill="rgba(255,182,105,1)" d="M10 4h1v1h-1z"/><path fill="rgba(135,52,0,1)" d="M11 4h1v1h-1zm1 0h1v1h-1z"/><path fill="rgba(255,182,105,1)" d="M13 4h1v1h-1z"/><path fill="rgba(135,52,0,1)" d="M14 4h1v1h-1zm1 0h1v1h-1zm1 0h1v1h-1zm1 0h1v1h-1z"/><path fill="rgba(255,182,105,1)" d="M18 4h1v1h-1z"/><path fill="rgba(135,52,0,1)" d="M19 4h1v1h-1zm1 0h1v1h-1z"/><path fill="rgba(255,182,105,1)" d="M21 4h1v1h-1z"/><path fill="rgba(135,52,0,1)" d="M22 4h1v1h-1z"/><path fill="rgba(255,182,105,1)" d="M23 4h1v1h-1zm1 0h1v1h-1zm1 0h1v1h-1zm1 0h1v1h-1zm1 0h1v1h-1z"/><path fill="rgba(0,0,0,1)" d="M28 4h1v1h-1z"/><path fill="rgba(255,255,255,1)" d="M29 4h1v1h-1zm1 0h1v1h-1zm1 0h1v1h-1zM0 5h1v1H0zm1 0h1v1H1zm1 0h1v1H2z"/><path fill="rgba(0,0,0,1)" d="M3 5h1v1H3z"/><path fill="rgba(255,182,105,1)" d="M4 5h1v1H4zm1 0h1v1H5zm1 0h1v1H6zm1 0h1v1H7zm1 0h1v1H8z"/><path fill="rgba(135,52,0,1)" d="M9 5h1v1H9z"/><path fill="rgba(255,182,105,1)" d="M10 5h1v1h-1z"/><path fill="rgba(135,52,0,1)" d="M11 5h1v1h-1zm1 0h1v1h-1z"/><path fill="rgba(255,182,105,1)" d="M13 5h1v1h-1z"/><path fill="rgba(135,52,0,1)" d="M14 5h1v1h-1zm1 0h1v1h-1zm1 0h1v1h-1zm1 0h1v1h-1z"/><path fill="rgba(255,182,105,1)" d="M18 5h1v1h-1z"/><path fill="rgba(135,52,0,1)" d="M19 5h1v1h-1zm1 0h1v1h-1z"/><path fill="rgba(255,182,105,1)" d="M21 5h1v1h-1zm1 0h1v1h-1zm1 0h1v1h-1zm1 0h1v1h-1zm1 0h1v1h-1zm1 0h1v1h-1z"/><path fill="rgba(0,0,0,1)" d="M27 5h1v1h-1z"/><path fill="rgba(255,255,255,1)" d="M28 5h1v1h-1zm1 0h1v1h-1zm1 0h1v1h-1zm1 0h1v1h-1zM0 6h1v1H0zm1 0h1v1H1z"/><path fill="rgba(0,0,0,1)" d="M2 6h1v1H2z"/><path fill="rgba(255,182,105,1)" d="M3 6h1v1H3zm1 0h1v1H4zm1 0h1v1H5zm1 0h1v1H6zm1 0h1v1H7zm1 0h1v1H8zm1 0h1v1H9zm1 0h1v1h-1z"/><path fill="rgba(135,52,0,1)" d="M11 6h1v1h-1zm1 0h1v1h-1z"/><path fill="rgba(255,182,105,1)" d="M13 6h1v1h-1z"/><path fill="rgba(135,52,0,1)" d="M14 6h1v1h-1zm1 0h1v1h-1zm1 0h1v1h-1zm1 0h1v1h-1z"/><path fill="rgba(255,182,105,1)" d="M18 6h1v1h-1z"/><path fill="rgba(135,52,0,1)" d="M19 6h1v1h-1zm1 0h1v1h-1z"/><path fill="rgba(255,182,105,1)" d="M21 6h1v1h-1zm1 0h1v1h-1zm1 0h1v1h-1zm1 0h1v1h-1zm1 0h1v1h-1zm1 0h1v1h-1zm1 0h1v1h-1z"/><path fill="rgba(0,0,0,1)" d="M28 6h1v1h-1zm1 0h1v1h-1z"/><path fill="rgba(255,255,255,1)" d="M30 6h1v1h-1zm1 0h1v1h-1zM0 7h1v1H0z"/><path fill="rgba(0,0,0,1)" d="M1 7h1v1H1z"/><path fill="rgba(255,182,105,1)" d="M2 7h1v1H2zm1 0h1v1H3zm1 0h1v1H4zm1 0h1v1H5zm1 0h1v1H6zm1 0h1v1H7zm1 0h1v1H8zm1 0h1v1H9zm1 0h1v1h-1zm1 0h1v1h-1z"/><path fill="rgba(135,52,0,1)" d="M12 7h1v1h-1z"/><path fill="rgba(255,182,105,1)" d="M13 7h1v1h-1zm1 0h1v1h-1z"/><path fill="rgba(135,52,0,1)" d="M15 7h1v1h-1zm1 0h1v1h-1z"/><path fill="rgba(255,182,105,1)" d="M17 7h1v1h-1zm1 0h1v1h-1z"/><path fill="rgba(135,52,0,1)" d="M19 7h1v1h-1zm1 0h1v1h-1z"/><path fill="rgba(255,182,105,1)" d="M21 7h1v1h-1zm1 0h1v1h-1zm1 0h1v1h-1zm1 0h1v1h-1zm1 0h1v1h-1zm1 0h1v1h-1zm1 0h1v1h-1zm1 0h1v1h-1zm1 0h1v1h-1z"/><path fill="rgba(0,0,0,1)" d="M30 7h1v1h-1z"/><path fill="rgba(255,255,255,1)" d="M31 7h1v1h-1z"/><path fill="rgba(0,0,0,1)" d="M0 8h1v1H0z"/><path fill="rgba(255,182,105,1)" d="M1 8h1v1H1zm1 0h1v1H2zm1 0h1v1H3zm1 0h1v1H4zm1 0h1v1H5zm1 0h1v1H6zm1 0h1v1H7zm1 0h1v1H8zm1 0h1v1H9zm1 0h1v1h-1zm1 0h1v1h-1z"/><path fill="rgba(135,52,0,1)" d="M12 8h1v1h-1z"/><path fill="rgba(255,182,105,1)" d="M13 8h1v1h-1zm1 0h1v1h-1z"/><path fill="rgba(135,52,0,1)" d="M15 8h1v1h-1zm1 0h1v1h-1z"/><path fill="rgba(255,182,105,1)" d="M17 8h1v1h-1zm1 0h1v1h-1z"/><path fill="rgba(135,52,0,1)" d="M19 8h1v1h-1z"/><path fill="rgba(255,182,105,1)" d="M20 8h1v1h-1zm1 0h1v1h-1zm1 0h1v1h-1zm1 0h1v1h-1zm1 0h1v1h-1zm1 0h1v1h-1zm1 0h1v1h-1zm1 0h1v1h-1zm1 0h1v1h-1zm1 0h1v1h-1zm1 0h1v1h-1z"/><path fill="rgba(0,0,0,1)" d="M31 8h1v1h-1z"/><path fill="rgba(255,182,105,1)" d="M0 9h1v1H0zm1 0h1v1H1zm1 0h1v1H2zm1 0h1v1H3zm1 0h1v1H4zm1 0h1v1H5zm1 0h1v1H6zm1 0h1v1H7zm1 0h1v1H8zm1 0h1v1H9zm1 0h1v1h-1zm1 0h1v1h-1zm1 0h1v1h-1z"/><path fill="rgba(135,52,0,1)" d="M13 9h1v1h-1z"/><path fill="rgba(255,182,105,1)" d="M14 9h1v1h-1z"/><path fill="rgba(135,52,0,1)" d="M15 9h1v1h-1zm1 0h1v1h-1z"/><path fill="rgba(255,182,105,1)" d="M17 9h1v1h-1z"/><path fill="rgba(135,52,0,1)" d="M18 9h1v1h-1z"/><path fill="rgba(255,182,105,1)" d="M19 9h1v1h-1zm1 0h1v1h-1zm1 0h1v1h-1zm1 0h1v1h-1zm1 0h1v1h-1zm1 0h1v1h-1zm1 0h1v1h-1zm1 0h1v1h-1zm1 0h1v1h-1zm1 0h1v1h-1zm1 0h1v1h-1zm1 0h1v1h-1zm1 0h1v1h-1zM0 10h1v1H0zm1 0h1v1H1zm1 0h1v1H2zm1 0h1v1H3zm1 0h1v1H4zm1 0h1v1H5zm1 0h1v1H6zm1 0h1v1H7zm1 0h1v1H8zm1 0h1v1H9zm1 0h1v1h-1zm1 0h1v1h-1zm1 0h1v1h-1zm1 0h1v1h-1zm1 0h1v1h-1zm1 0h1v1h-1zm1 0h1v1h-1zm1 0h1v1h-1zm1 0h1v1h-1zm1 0h1v1h-1zm1 0h1v1h-1zm1 0h1v1h-1zm1 0h1v1h-1zm1 0h1v1h-1zm1 0h1v1h-1zm1 0h1v1h-1zm1 0h1v1h-1zm1 0h1v1h-1zm1 0h1v1h-1zm1 0h1v1h-1zm1 0h1v1h-1zm1 0h1v1h-1zM0 11h1v1H0zm1 0h1v1H1zm1 0h1v1H2zm1 0h1v1H3zm1 0h1v1H4zm1 0h1v1H5zm1 0h1v1H6zm1 0h1v1H7zm1 0h1v1H8zm1 0h1v1H9zm1 0h1v1h-1zm1 0h1v1h-1zm1 0h1v1h-1zm1 0h1v1h-1zm1 0h1v1h-1zm1 0h1v1h-1zm1 0h1v1h-1zm1 0h1v1h-1zm1 0h1v1h-1zm1 0h1v1h-1zm1 0h1v1h-1zm1 0h1v1h-1zm1 0h1v1h-1zm1 0h1v1h-1zm1 0h1v1h-1zm1 0h1v1h-1zm1 0h1v1h-1zm1 0h1v1h-1zm1 0h1v1h-1zm1 0h1v1h-1zm1 0h1v1h-1zm1 0h1v1h-1zM0 12h1v1H0zm1 0h1v1H1z"/><path fill="rgba(135,52,0,1)" d="M2 12h1v1H2z"/><path fill="rgba(255,182,105,1)" d="M3 12h1v1H3zm1 0h1v1H4zm1 0h1v1H5zm1 0h1v1H6zm1 0h1v1H7zm1 0h1v1H8zm1 0h1v1H9zm1 0h1v1h-1zm1 0h1v1h-1zm1 0h1v1h-1z"/><path fill="rgba(255,255,255,1)" d="M13 12h1v1h-1zm1 0h1v1h-1zm1 0h1v1h-1zm1 0h1v1h-1z"/><path fill="rgba(255,182,105,1)" d="M17 12h1v1h-1zm1 0h1v1h-1zm1 0h1v1h-1zm1 0h1v1h-1zm1 0h1v1h-1zm1 0h1v1h-1zm1 0h1v1h-1zm1 0h1v1h-1zm1 0h1v1h-1zm1 0h1v1h-1zm1 0h1v1h-1zm1 0h1v1h-1z"/><path fill="rgba(135,52,0,1)" d="M29 12h1v1h-1zm1 0h1v1h-1z"/><path fill="rgba(255,182,105,1)" d="M31 12h1v1h-1zM0 13h1v1H0z"/><path fill="rgba(135,52,0,1)" d="M1 13h1v1H1zm1 0h1v1H2zm1 0h1v1H3z"/><path fill="rgba(255,182,105,1)" d="M4 13h1v1H4zm1 0h1v1H5zm1 0h1v1H6zm1 0h1v1H7zm1 0h1v1H8zm1 0h1v1H9zm1 0h1v1h-1zm1 0h1v1h-1z"/><path fill="rgba(255,255,255,1)" d="M12 13h1v1h-1zm1 0h1v1h-1zm1 0h1v1h-1zm1 0h1v1h-1zm1 0h1v1h-1zm1 0h1v1h-1zm1 0h1v1h-1z"/><path fill="rgba(255,182,105,1)" d="M19 13h1v1h-1zm1 0h1v1h-1zm1 0h1v1h-1zm1 0h1v1h-1zm1 0h1v1h-1zm1 0h1v1h-1zm1 0h1v1h-1zm1 0h1v1h-1zm1 0h1v1h-1zm1 0h1v1h-1zm1 0h1v1h-1z"/><path fill="rgba(135,52,0,1)" d="M30 13h1v1h-1zm1 0h1v1h-1zM0 14h1v1H0zm1 0h1v1H1zm1 0h1v1H2z"/><path fill="rgba(255,182,105,1)" d="M3 14h1v1H3zm1 0h1v1H4z"/><path fill="rgba(0,0,0,1)" d="M5 14h1v1H5zm1 0h1v1H6zm1 0h1v1H7zm1 0h1v1H8zm1 0h1v1H9z"/><path fill="rgba(255,182,105,1)" d="M10 14h1v1h-1z"/><path fill="rgba(255,255,255,1)" d="M11 14h1v1h-1zm1 0h1v1h-1zm1 0h1v1h-1zm1 0h1v1h-1zm1 0h1v1h-1zm1 0h1v1h-1zm1 0h1v1h-1zm1 0h1v1h-1zm1 0h1v1h-1z"/><path fill="rgba(255,182,105,1)" d="M20 14h1v1h-1z"/><path fill="rgba(0,0,0,1)" d="M21 14h1v1h-1zm1 0h1v1h-1zm1 0h1v1h-1zm1 0h1v1h-1zm1 0h1v1h-1zm1 0h1v1h-1z"/><path fill="rgba(255,182,105,1)" d="M27 14h1v1h-1zm1 0h1v1h-1zm1 0h1v1h-1zm1 0h1v1h-1z"/><path fill="rgba(135,52,0,1)" d="M31 14h1v1h-1zM0 15h1v1H0zm1 0h1v1H1z"/><path fill="rgba(255,182,105,1)" d="M2 15h1v1H2zm1 0h1v1H3z"/><path fill="rgba(0,0,0,1)" d="M4 15h1v1H4zm1 0h1v1H5zm1 0h1v1H6zm1 0h1v1H7zm1 0h1v1H8zm1 0h1v1H9zm1 0h1v1h-1z"/><path fill="rgba(255,255,255,1)" d="M11 15h1v1h-1zm1 0h1v1h-1zm1 0h1v1h-1zm1 0h1v1h-1zm1 0h1v1h-1zm1 0h1v1h-1zm1 0h1v1h-1zm1 0h1v1h-1zm1 0h1v1h-1z"/><path fill="rgba(0,0,0,1)" d="M20 15h1v1h-1zm1 0h1v1h-1zm1 0h1v1h-1zm1 0h1v1h-1zm1 0h1v1h-1zm1 0h1v1h-1zm1 0h1v1h-1zm1 0h1v1h-1z"/><path fill="rgba(255,182,105,1)" d="M28 15h1v1h-1zm1 0h1v1h-1zm1 0h1v1h-1z"/><path fill="rgba(135,52,0,1)" d="M31 15h1v1h-1zM0 16h1v1H0z"/><path fill="rgba(255,182,105,1)" d="M1 16h1v1H1zm1 0h1v1H2zm1 0h1v1H3zm1 0h1v1H4zm1 0h1v1H5zm1 0h1v1H6zm1 0h1v1H7zm1 0h1v1H8z"/><path fill="rgba(255,255,255,1)" d="M9 16h1v1H9zm1 0h1v1h-1z"/><path fill="rgba(0,0,0,1)" d="M11 16h1v1h-1z"/><path fill="rgba(255,255,255,1)" d="M12 16h1v1h-1zm1 0h1v1h-1zm1 0h1v1h-1zm1 0h1v1h-1zm1 0h1v1h-1zm1 0h1v1h-1zm1 0h1v1h-1z"/><path fill="rgba(0,0,0,1)" d="M19 16h1v1h-1z"/><path fill="rgba(255,255,255,1)" d="M20 16h1v1h-1z"/><path fill="rgba(255,182,105,1)" d="M21 16h1v1h-1zm1 0h1v1h-1zm1 0h1v1h-1zm1 0h1v1h-1zm1 0h1v1h-1zm1 0h1v1h-1zm1 0h1v1h-1zm1 0h1v1h-1zm1 0h1v1h-1zm1 0h1v1h-1z"/><path fill="rgba(135,52,0,1)" d="M31 16h1v1h-1zM0 17h1v1H0zm1 0h1v1H1z"/><path fill="rgba(255,182,105,1)" d="M2 17h1v1H2zm1 0h1v1H3zm1 0h1v1H4zm1 0h1v1H5zm1 0h1v1H6zm1 0h1v1H7z"/><path fill="rgba(255,255,255,1)" d="M8 17h1v1H8zm1 0h1v1H9zm1 0h1v1h-1zm1 0h1v1h-1zm1 0h1v1h-1zm1 0h1v1h-1zm1 0h1v1h-1zm1 0h1v1h-1zm1 0h1v1h-1zm1 0h1v1h-1zm1 0h1v1h-1zm1 0h1v1h-1zm1 0h1v1h-1zm1 0h1v1h-1zm1 0h1v1h-1z"/><path fill="rgba(255,182,105,1)" d="M23 17h1v1h-1zm1 0h1v1h-1zm1 0h1v1h-1zm1 0h1v1h-1zm1 0h1v1h-1zm1 0h1v1h-1zm1 0h1v1h-1z"/><path fill="rgba(135,52,0,1)" d="M30 17h1v1h-1zm1 0h1v1h-1z"/><path fill="rgba(255,182,105,1)" d="M0 18h1v1H0z"/><path fill="rgba(135,52,0,1)" d="M1 18h1v1H1zm1 0h1v1H2z"/><path fill="rgba(255,182,105,1)" d="M3 18h1v1H3z"/><path fill="rgba(255,255,255,1)" d="M4 18h1v1H4z"/><path fill="rgba(255,182,105,1)" d="M5 18h1v1H5zm1 0h1v1H6z"/><path fill="rgba(255,255,255,1)" d="M7 18h1v1H7zm1 0h1v1H8zm1 0h1v1H9zm1 0h1v1h-1zm1 0h1v1h-1zm1 0h1v1h-1z"/><path fill="rgba(135,52,0,1)" d="M13 18h1v1h-1z"/><path fill="rgba(255,255,255,1)" d="M14 18h1v1h-1zm1 0h1v1h-1zm1 0h1v1h-1z"/><path fill="rgba(135,52,0,1)" d="M17 18h1v1h-1z"/><path fill="rgba(255,255,255,1)" d="M18 18h1v1h-1zm1 0h1v1h-1zm1 0h1v1h-1zm1 0h1v1h-1zm1 0h1v1h-1zm1 0h1v1h-1z"/><path fill="rgba(255,182,105,1)" d="M24 18h1v1h-1z"/><path fill="rgba(255,255,255,1)" d="M25 18h1v1h-1z"/><path fill="rgba(255,182,105,1)" d="M26 18h1v1h-1zm1 0h1v1h-1zm1 0h1v1h-1z"/><path fill="rgba(135,52,0,1)" d="M29 18h1v1h-1zm1 0h1v1h-1z"/><path fill="rgba(255,182,105,1)" d="M31 18h1v1h-1zM0 19h1v1H0zm1 0h1v1H1zm1 0h1v1H2zm1 0h1v1H3zm1 0h1v1H4zm1 0h1v1H5z"/><path fill="rgba(255,255,255,1)" d="M6 19h1v1H6zm1 0h1v1H7z"/><path fill="rgba(255,182,105,1)" d="M8 19h1v1H8zm1 0h1v1H9zm1 0h1v1h-1z"/><path fill="rgba(255,255,255,1)" d="M11 19h1v1h-1zm1 0h1v1h-1zm1 0h1v1h-1z"/><path fill="rgba(135,52,0,1)" d="M14 19h1v1h-1zm1 0h1v1h-1zm1 0h1v1h-1z"/><path fill="rgba(255,255,255,1)" d="M17 19h1v1h-1zm1 0h1v1h-1z"/><path fill="rgba(255,182,105,1)" d="M19 19h1v1h-1zm1 0h1v1h-1zm1 0h1v1h-1z"/><path fill="rgba(255,255,255,1)" d="M22 19h1v1h-1zm1 0h1v1h-1zm1 0h1v1h-1z"/><path fill="rgba(255,182,105,1)" d="M25 19h1v1h-1zm1 0h1v1h-1zm1 0h1v1h-1zm1 0h1v1h-1zm1 0h1v1h-1zm1 0h1v1h-1zm1 0h1v1h-1zM0 20h1v1H0z"/><path fill="rgba(255,255,255,1)" d="M1 20h1v1H1zm1 0h1v1H2zm1 0h1v1H3z"/><path fill="rgba(255,182,105,1)" d="M4 20h1v1H4zm1 0h1v1H5z"/><path fill="rgba(255,255,255,1)" d="M6 20h1v1H6zm1 0h1v1H7z"/><path fill="rgba(255,182,105,1)" d="M8 20h1v1H8zm1 0h1v1H9zm1 0h1v1h-1zm1 0h1v1h-1z"/><path fill="rgba(255,255,255,1)" d="M12 20h1v1h-1zm1 0h1v1h-1zm1 0h1v1h-1z"/><path fill="rgba(135,52,0,1)" d="M15 20h1v1h-1z"/><path fill="rgba(255,255,255,1)" d="M16 20h1v1h-1zm1 0h1v1h-1z"/><path fill="rgba(255,182,105,1)" d="M18 20h1v1h-1zm1 0h1v1h-1zm1 0h1v1h-1zm1 0h1v1h-1zm1 0h1v1h-1z"/><path fill="rgba(255,255,255,1)" d="M23 20h1v1h-1zm1 0h1v1h-1z"/><path fill="rgba(255,182,105,1)" d="M25 20h1v1h-1zm1 0h1v1h-1zm1 0h1v1h-1z"/><path fill="rgba(255,255,255,1)" d="M28 20h1v1h-1zm1 0h1v1h-1z"/><path fill="rgba(255,182,105,1)" d="M30 20h1v1h-1zm1 0h1v1h-1zM0 21h1v1H0zm1 0h1v1H1zm1 0h1v1H2zm1 0h1v1H3zm1 0h1v1H4z"/><path fill="rgba(255,255,255,1)" d="M5 21h1v1H5zm1 0h1v1H6z"/><path fill="rgba(255,182,105,1)" d="M7 21h1v1H7zm1 0h1v1H8zm1 0h1v1H9zm1 0h1v1h-1zm1 0h1v1h-1zm1 0h1v1h-1z"/><path fill="rgba(255,255,255,1)" d="M13 21h1v1h-1zm1 0h1v1h-1zm1 0h1v1h-1zm1 0h1v1h-1zm1 0h1v1h-1z"/><path fill="rgba(255,182,105,1)" d="M18 21h1v1h-1zm1 0h1v1h-1zm1 0h1v1h-1zm1 0h1v1h-1zm1 0h1v1h-1z"/><path fill="rgba(255,255,255,1)" d="M23 21h1v1h-1zm1 0h1v1h-1zm1 0h1v1h-1z"/><path fill="rgba(255,182,105,1)" d="M26 21h1v1h-1zm1 0h1v1h-1zm1 0h1v1h-1zm1 0h1v1h-1zm1 0h1v1h-1zm1 0h1v1h-1zM0 22h1v1H0zm1 0h1v1H1z"/><path fill="rgba(255,255,255,1)" d="M2 22h1v1H2z"/><path fill="rgba(255,182,105,1)" d="M3 22h1v1H3zm1 0h1v1H4z"/><path fill="rgba(255,255,255,1)" d="M5 22h1v1H5zm1 0h1v1H6zm1 0h1v1H7zm1 0h1v1H8zm1 0h1v1H9zm1 0h1v1h-1zm1 0h1v1h-1z"/><path fill="rgba(255,182,105,1)" d="M12 22h1v1h-1z"/><path fill="rgba(255,255,255,1)" d="M13 22h1v1h-1zm1 0h1v1h-1z"/><path fill="rgba(135,52,0,1)" d="M15 22h1v1h-1z"/><path fill="rgba(255,255,255,1)" d="M16 22h1v1h-1zm1 0h1v1h-1z"/><path fill="rgba(255,182,105,1)" d="M18 22h1v1h-1zm1 0h1v1h-1z"/><path fill="rgba(255,255,255,1)" d="M20 22h1v1h-1zm1 0h1v1h-1zm1 0h1v1h-1zm1 0h1v1h-1zm1 0h1v1h-1zm1 0h1v1h-1z"/><path fill="rgba(255,182,105,1)" d="M26 22h1v1h-1zm1 0h1v1h-1zm1 0h1v1h-1zm1 0h1v1h-1zm1 0h1v1h-1zm1 0h1v1h-1zM0 23h1v1H0z"/><path fill="rgba(255,255,255,1)" d="M1 23h1v1H1z"/><path fill="rgba(255,182,105,1)" d="M2 23h1v1H2zm1 0h1v1H3zm1 0h1v1H4z"/><path fill="rgba(255,255,255,1)" d="M5 23h1v1H5zm1 0h1v1H6zm1 0h1v1H7zm1 0h1v1H8z"/><path fill="rgba(135,52,0,1)" d="M9 23h1v1H9zm1 0h1v1h-1z"/><path fill="rgba(255,255,255,1)" d="M11 23h1v1h-1zm1 0h1v1h-1zm1 0h1v1h-1zm1 0h1v1h-1z"/><path fill="rgba(135,52,0,1)" d="M15 23h1v1h-1z"/><path fill="rgba(255,255,255,1)" d="M16 23h1v1h-1zm1 0h1v1h-1zm1 0h1v1h-1zm1 0h1v1h-1z"/><path fill="rgba(135,52,0,1)" d="M20 23h1v1h-1zm1 0h1v1h-1z"/><path fill="rgba(255,255,255,1)" d="M22 23h1v1h-1zm1 0h1v1h-1zm1 0h1v1h-1z"/><path fill="rgba(255,182,105,1)" d="M25 23h1v1h-1zm1 0h1v1h-1z"/><path fill="rgba(255,255,255,1)" d="M27 23h1v1h-1z"/><path fill="rgba(255,182,105,1)" d="M28 23h1v1h-1zm1 0h1v1h-1zm1 0h1v1h-1zm1 0h1v1h-1zM0 24h1v1H0zm1 0h1v1H1zm1 0h1v1H2zm1 0h1v1H3zm1 0h1v1H4zm1 0h1v1H5z"/><path fill="rgba(255,255,255,1)" d="M6 24h1v1H6zm1 0h1v1H7zm1 0h1v1H8zm1 0h1v1H9z"/><path fill="rgba(135,52,0,1)" d="M10 24h1v1h-1zm1 0h1v1h-1zm1 0h1v1h-1zm1 0h1v1h-1zm1 0h1v1h-1zm1 0h1v1h-1zm1 0h1v1h-1zm1 0h1v1h-1zm1 0h1v1h-1zm1 0h1v1h-1zm1 0h1v1h-1z"/><path fill="rgba(255,255,255,1)" d="M21 24h1v1h-1zm1 0h1v1h-1zm1 0h1v1h-1z"/><path fill="rgba(255,182,105,1)" d="M24 24h1v1h-1zm1 0h1v1h-1z"/><path fill="rgba(255,190,120,1)" d="M26 24h1v1h-1z"/><path fill="rgba(255,182,105,1)" d="M27 24h1v1h-1z"/><path fill="rgba(255,255,255,1)" d="M28 24h1v1h-1z"/><path fill="rgba(255,182,105,1)" d="M29 24h1v1h-1zm1 0h1v1h-1zm1 0h1v1h-1zM0 25h1v1H0zm1 0h1v1H1zm1 0h1v1H2zm1 0h1v1H3zm1 0h1v1H4zm1 0h1v1H5zm1 0h1v1H6zm1 0h1v1H7z"/><path fill="rgba(255,255,255,1)" d="M8 25h1v1H8zm1 0h1v1H9zm1 0h1v1h-1zm1 0h1v1h-1zm1 0h1v1h-1zm1 0h1v1h-1zm1 0h1v1h-1zm1 0h1v1h-1zm1 0h1v1h-1zm1 0h1v1h-1zm1 0h1v1h-1zm1 0h1v1h-1zm1 0h1v1h-1zm1 0h1v1h-1zm1 0h1v1h-1z"/><path fill="rgba(255,182,105,1)" d="M23 25h1v1h-1zm1 0h1v1h-1zm1 0h1v1h-1zm1 0h1v1h-1zm1 0h1v1h-1zm1 0h1v1h-1zm1 0h1v1h-1zm1 0h1v1h-1zm1 0h1v1h-1z"/><path fill="rgba(135,52,0,1)" d="M0 26h1v1H0zm1 0h1v1H1z"/><path fill="rgba(255,182,105,1)" d="M2 26h1v1H2zm1 0h1v1H3zm1 0h1v1H4zm1 0h1v1H5zm1 0h1v1H6zm1 0h1v1H7zm1 0h1v1H8zm1 0h1v1H9z"/><path fill="rgba(255,255,255,1)" d="M10 26h1v1h-1zm1 0h1v1h-1zm1 0h1v1h-1zm1 0h1v1h-1zm1 0h1v1h-1zm1 0h1v1h-1zm1 0h1v1h-1zm1 0h1v1h-1zm1 0h1v1h-1zm1 0h1v1h-1z"/><path fill="rgba(255,182,105,1)" d="M20 26h1v1h-1zm1 0h1v1h-1zm1 0h1v1h-1zm1 0h1v1h-1zm1 0h1v1h-1zm1 0h1v1h-1zm1 0h1v1h-1zm1 0h1v1h-1zm1 0h1v1h-1zm1 0h1v1h-1zm1 0h1v1h-1z"/><path fill="rgba(135,52,0,1)" d="M31 26h1v1h-1zM0 27h1v1H0zm1 0h1v1H1z"/><path fill="rgba(0,0,0,1)" d="M2 27h1v1H2zm1 0h1v1H3zm1 0h1v1H4zm1 0h1v1H5zm1 0h1v1H6zm1 0h1v1H7z"/><path fill="rgba(255,182,105,1)" d="M8 27h1v1H8zm1 0h1v1H9zm1 0h1v1h-1zm1 0h1v1h-1zm1 0h1v1h-1zm1 0h1v1h-1zm1 0h1v1h-1zm1 0h1v1h-1zm1 0h1v1h-1zm1 0h1v1h-1zm1 0h1v1h-1zm1 0h1v1h-1zm1 0h1v1h-1zm1 0h1v1h-1zm1 0h1v1h-1z"/><path fill="rgba(0,0,0,1)" d="M23 27h1v1h-1zm1 0h1v1h-1zm1 0h1v1h-1zm1 0h1v1h-1zm1 0h1v1h-1zm1 0h1v1h-1zm1 0h1v1h-1z"/><path fill="rgba(135,52,0,1)" d="M30 27h1v1h-1zm1 0h1v1h-1zM0 28h1v1H0z"/><path fill="rgba(0,0,0,1)" d="M1 28h1v1H1z"/><path fill="rgba(255,182,105,1)" d="M2 28h1v1H2zm1 0h1v1H3z"/><path fill="rgba(255,255,255,1)" d="M4 28h1v1H4zm1 0h1v1H5zm1 0h1v1H6zm1 0h1v1H7z"/><path fill="rgba(0,0,0,1)" d="M8 28h1v1H8z"/><path fill="rgba(255,182,105,1)" d="M9 28h1v1H9zm1 0h1v1h-1zm1 0h1v1h-1zm1 0h1v1h-1zm1 0h1v1h-1zm1 0h1v1h-1zm1 0h1v1h-1zm1 0h1v1h-1zm1 0h1v1h-1zm1 0h1v1h-1zm1 0h1v1h-1zm1 0h1v1h-1zm1 0h1v1h-1z"/><path fill="rgba(0,0,0,1)" d="M22 28h1v1h-1z"/><path fill="rgba(255,255,255,1)" d="M23 28h1v1h-1zm1 0h1v1h-1zm1 0h1v1h-1zm1 0h1v1h-1zm1 0h1v1h-1z"/><path fill="rgba(255,182,105,1)" d="M28 28h1v1h-1zm1 0h1v1h-1z"/><path fill="rgba(0,0,0,1)" d="M30 28h1v1h-1zm1 0h1v1h-1zM0 29h1v1H0z"/><path fill="rgba(255,182,105,1)" d="M1 29h1v1H1zm1 0h1v1H2z"/><path fill="rgba(255,255,255,1)" d="M3 29h1v1H3zm1 0h1v1H4zm1 0h1v1H5z"/><path fill="rgba(135,52,0,1)" d="M6 29h1v1H6z"/><path fill="rgba(255,255,255,1)" d="M7 29h1v1H7zm1 0h1v1H8z"/><path fill="rgba(0,0,0,1)" d="M9 29h1v1H9z"/><path fill="rgba(135,52,0,1)" d="M10 29h1v1h-1z"/><path fill="rgba(255,182,105,1)" d="M11 29h1v1h-1zm1 0h1v1h-1zm1 0h1v1h-1zm1 0h1v1h-1zm1 0h1v1h-1zm1 0h1v1h-1zm1 0h1v1h-1zm1 0h1v1h-1zm1 0h1v1h-1z"/><path fill="rgba(135,52,0,1)" d="M20 29h1v1h-1z"/><path fill="rgba(0,0,0,1)" d="M21 29h1v1h-1z"/><path fill="rgba(255,255,255,1)" d="M22 29h1v1h-1zm1 0h1v1h-1z"/><path fill="rgba(135,52,0,1)" d="M24 29h1v1h-1z"/><path fill="rgba(255,255,255,1)" d="M25 29h1v1h-1zm1 0h1v1h-1zm1 0h1v1h-1zm1 0h1v1h-1z"/><path fill="rgba(255,182,105,1)" d="M29 29h1v1h-1zm1 0h1v1h-1z"/><path fill="rgba(0,0,0,1)" d="M31 29h1v1h-1zM0 30h1v1H0z"/><path fill="rgba(255,182,105,1)" d="M1 30h1v1H1zm1 0h1v1H2z"/><path fill="rgba(255,255,255,1)" d="M3 30h1v1H3z"/><path fill="rgba(135,52,0,1)" d="M4 30h1v1H4z"/><path fill="rgba(255,255,255,1)" d="M5 30h1v1H5zm1 0h1v1H6z"/><path fill="rgba(135,52,0,1)" d="M7 30h1v1H7z"/><path fill="rgba(255,255,255,1)" d="M8 30h1v1H8z"/><path fill="rgba(0,0,0,1)" d="M9 30h1v1H9z"/><path fill="rgba(135,52,0,1)" d="M10 30h1v1h-1zm1 0h1v1h-1zm1 0h1v1h-1zm1 0h1v1h-1zm1 0h1v1h-1zm1 0h1v1h-1zm1 0h1v1h-1zm1 0h1v1h-1zm1 0h1v1h-1zm1 0h1v1h-1zm1 0h1v1h-1z"/><path fill="rgba(0,0,0,1)" d="M21 30h1v1h-1z"/><path fill="rgba(255,255,255,1)" d="M22 30h1v1h-1z"/><path fill="rgba(135,52,0,1)" d="M23 30h1v1h-1z"/><path fill="rgba(255,255,255,1)" d="M24 30h1v1h-1zm1 0h1v1h-1z"/><path fill="rgba(135,52,0,1)" d="M26 30h1v1h-1z"/><path fill="rgba(255,255,255,1)" d="M27 30h1v1h-1zm1 0h1v1h-1z"/><path fill="rgba(255,182,105,1)" d="M29 30h1v1h-1zm1 0h1v1h-1z"/><path fill="rgba(0,0,0,1)" d="M31 30h1v1h-1z"/><path fill="rgba(255,182,105,1)" d="M0 31h1v1H0zm1 0h1v1H1z"/><path fill="rgba(255,255,255,1)" d="M2 31h1v1H2zm1 0h1v1H3z"/><path fill="rgba(135,52,0,1)" d="M4 31h1v1H4z"/><path fill="rgba(255,255,255,1)" d="M5 31h1v1H5zm1 0h1v1H6z"/><path fill="rgba(135,52,0,1)" d="M7 31h1v1H7z"/><path fill="rgba(255,255,255,1)" d="M8 31h1v1H8zm1 0h1v1H9z"/><path fill="rgba(0,0,0,1)" d="M10 31h1v1h-1z"/><path fill="rgba(135,52,0,1)" d="M11 31h1v1h-1zm1 0h1v1h-1zm1 0h1v1h-1zm1 0h1v1h-1zm1 0h1v1h-1zm1 0h1v1h-1zm1 0h1v1h-1zm1 0h1v1h-1zm1 0h1v1h-1z"/><path fill="rgba(0,0,0,1)" d="M20 31h1v1h-1z"/><path fill="rgba(255,255,255,1)" d="M21 31h1v1h-1zm1 0h1v1h-1z"/><path fill="rgba(135,52,0,1)" d="M23 31h1v1h-1z"/><path fill="rgba(255,255,255,1)" d="M24 31h1v1h-1zm1 0h1v1h-1z"/><path fill="rgba(135,52,0,1)" d="M26 31h1v1h-1z"/><path fill="rgba(255,255,255,1)" d="M27 31h1v1h-1zm1 0h1v1h-1zm1 0h1v1h-1z"/><path fill="rgba(255,182,105,1)" d="M30 31h1v1h-1z"/><path fill="rgba(0,0,0,1)" d="M31 31h1v1h-1z"/></svg>