<svg xmlns="http://www.w3.org/2000/svg" viewBox="0 0 32 32"><path fill="rgba(135,52,0,1)" d="M0 0h1v1H0zm1 0h1v1H1zm1 0h1v1H2zm1 0h1v1H3zm1 0h1v1H4zm1 0h1v1H5zm1 0h1v1H6zm1 0h1v1H7zm1 0h1v1H8zm1 0h1v1H9zm1 0h1v1h-1zm1 0h1v1h-1zm1 0h1v1h-1zm1 0h1v1h-1zm1 0h1v1h-1zm1 0h1v1h-1zm1 0h1v1h-1zm1 0h1v1h-1zm1 0h1v1h-1zm1 0h1v1h-1zm1 0h1v1h-1zm1 0h1v1h-1zm1 0h1v1h-1z"/><path fill="rgba(0,0,0,1)" d="M23 0h1v1h-1zm1 0h1v1h-1zm1 0h1v1h-1zm1 0h1v1h-1z"/><path fill="rgba(135,52,0,1)" d="M27 0h1v1h-1zm1 0h1v1h-1zm1 0h1v1h-1zm1 0h1v1h-1zm1 0h1v1h-1zM0 1h1v1H0zm1 0h1v1H1zm1 0h1v1H2zm1 0h1v1H3zm1 0h1v1H4zm1 0h1v1H5zm1 0h1v1H6zm1 0h1v1H7zm1 0h1v1H8zm1 0h1v1H9zm1 0h1v1h-1zm1 0h1v1h-1zm1 0h1v1h-1z"/><path fill="rgba(0,0,0,1)" d="M13 1h1v1h-1zm1 0h1v1h-1zm1 0h1v1h-1zm1 0h1v1h-1zm1 0h1v1h-1zm1 0h1v1h-1zm1 0h1v1h-1z"/><path fill="rgba(135,52,0,1)" d="M20 1h1v1h-1zm1 0h1v1h-1z"/><path fill="rgba(0,0,0,1)" d="M22 1h1v1h-1z"/><path fill="rgba(255,255,255,1)" d="M23 1h1v1h-1z"/><path fill="rgba(255,130,134,1)" d="M24 1h1v1h-1z"/><path fill="rgba(255,255,255,1)" d="M25 1h1v1h-1z"/><path fill="rgba(135,52,0,1)" d="M26 1h1v1h-1z"/><path fill="rgba(0,0,0,1)" d="M27 1h1v1h-1zm1 0h1v1h-1z"/><path fill="rgba(135,52,0,1)" d="M29 1h1v1h-1zm1 0h1v1h-1zm1 0h1v1h-1zM0 2h1v1H0zm1 0h1v1H1zm1 0h1v1H2zm1 0h1v1H3zm1 0h1v1H4zm1 0h1v1H5zm1 0h1v1H6zm1 0h1v1H7zm1 0h1v1H8zm1 0h1v1H9z"/><path fill="rgba(0,0,0,1)" d="M10 2h1v1h-1zm1 0h1v1h-1zm1 0h1v1h-1z"/><path fill="rgba(135,52,0,1)" d="M13 2h1v1h-1z"/><path fill="rgba(255,182,105,1)" d="M14 2h1v1h-1zm1 0h1v1h-1z"/><path fill="rgba(135,52,0,1)" d="M16 2h1v1h-1z"/><path fill="rgba(255,182,105,1)" d="M17 2h1v1h-1z"/><path fill="rgba(135,52,0,1)" d="M18 2h1v1h-1zm1 0h1v1h-1z"/><path fill="rgba(0,0,0,1)" d="M20 2h1v1h-1zm1 0h1v1h-1z"/><path fill="rgba(255,255,255,1)" d="M22 2h1v1h-1zm1 0h1v1h-1z"/><path fill="rgba(255,130,134,1)" d="M24 2h1v1h-1z"/><path fill="rgba(255,255,255,1)" d="M25 2h1v1h-1zm1 0h1v1h-1z"/><path fill="rgba(135,52,0,1)" d="M27 2h1v1h-1z"/><path fill="rgba(255,182,105,1)" d="M28 2h1v1h-1z"/><path fill="rgba(0,0,0,1)" d="M29 2h1v1h-1zm1 0h1v1h-1z"/><path fill="rgba(255,182,105,1)" d="M31 2h1v1h-1z"/><path fill="rgba(135,52,0,1)" d="M0 3h1v1H0zm1 0h1v1H1zm1 0h1v1H2zm1 0h1v1H3z"/><path fill="rgba(0,0,0,1)" d="M4 3h1v1H4zm1 0h1v1H5zm1 0h1v1H6z"/><path fill="rgba(135,52,0,1)" d="M7 3h1v1H7zm1 0h1v1H8z"/><path fill="rgba(0,0,0,1)" d="M9 3h1v1H9z"/><path fill="rgba(135,52,0,1)" d="M10 3h1v1h-1z"/><path fill="rgba(255,182,105,1)" d="M11 3h1v1h-1zm1 0h1v1h-1z"/><path fill="rgba(135,52,0,1)" d="M13 3h1v1h-1z"/><path fill="rgba(255,182,105,1)" d="M14 3h1v1h-1zm1 0h1v1h-1z"/><path fill="rgba(135,52,0,1)" d="M16 3h1v1h-1z"/><path fill="rgba(255,182,105,1)" d="M17 3h1v1h-1z"/><path fill="rgba(135,52,0,1)" d="M18 3h1v1h-1zm1 0h1v1h-1z"/><path fill="rgba(255,182,105,1)" d="M20 3h1v1h-1zm1 0h1v1h-1z"/><path fill="rgba(0,0,0,1)" d="M22 3h1v1h-1z"/><path fill="rgba(255,255,255,1)" d="M23 3h1v1h-1zm1 0h1v1h-1zm1 0h1v1h-1z"/><path fill="rgba(255,130,134,1)" d="M26 3h1v1h-1z"/><path fill="rgba(255,255,255,1)" d="M27 3h1v1h-1z"/><path fill="rgba(135,52,0,1)" d="M28 3h1v1h-1z"/><path fill="rgba(255,255,255,1)" d="M29 3h1v1h-1z"/><path fill="rgba(0,0,0,1)" d="M30 3h1v1h-1z"/><path fill="rgba(255,182,105,1)" d="M31 3h1v1h-1z"/><path fill="rgba(135,52,0,1)" d="M0 4h1v1H0zm1 0h1v1H1z"/><path fill="rgba(0,0,0,1)" d="M2 4h1v1H2zm1 0h1v1H3z"/><path fill="rgba(255,255,255,1)" d="M4 4h1v1H4zm1 0h1v1H5z"/><path fill="rgba(0,0,0,1)" d="M6 4h1v1H6z"/><path fill="rgba(135,52,0,1)" d="M7 4h1v1H7z"/><path fill="rgba(0,0,0,1)" d="M8 4h1v1H8z"/><path fill="rgba(255,182,105,1)" d="M9 4h1v1H9z"/><path fill="rgba(135,52,0,1)" d="M10 4h1v1h-1zm1 0h1v1h-1z"/><path fill="rgba(255,182,105,1)" d="M12 4h1v1h-1z"/><path fill="rgba(135,52,0,1)" d="M13 4h1v1h-1zm1 0h1v1h-1z"/><path fill="rgba(255,182,105,1)" d="M15 4h1v1h-1z"/><path fill="rgba(135,52,0,1)" d="M16 4h1v1h-1z"/><path fill="rgba(255,182,105,1)" d="M17 4h1v1h-1z"/><path fill="rgba(135,52,0,1)" d="M18 4h1v1h-1zm1 0h1v1h-1z"/><path fill="rgba(255,182,105,1)" d="M20 4h1v1h-1zm1 0h1v1h-1zm1 0h1v1h-1z"/><path fill="rgba(255,130,134,1)" d="M23 4h1v1h-1zm1 0h1v1h-1z"/><path fill="rgba(255,255,255,1)" d="M25 4h1v1h-1z"/><path fill="rgba(255,130,134,1)" d="M26 4h1v1h-1z"/><path fill="rgba(255,255,255,1)" d="M27 4h1v1h-1z"/><path fill="rgba(0,0,0,1)" d="M28 4h1v1h-1z"/><path fill="rgba(255,255,255,1)" d="M29 4h1v1h-1z"/><path fill="rgba(0,0,0,1)" d="M30 4h1v1h-1z"/><path fill="rgba(255,182,105,1)" d="M31 4h1v1h-1z"/><path fill="rgba(135,52,0,1)" d="M0 5h1v1H0z"/><path fill="rgba(0,0,0,1)" d="M1 5h1v1H1z"/><path fill="rgba(255,255,255,1)" d="M2 5h1v1H2zm1 0h1v1H3z"/><path fill="rgba(0,0,0,1)" d="M4 5h1v1H4zm1 0h1v1H5zm1 0h1v1H6zm1 0h1v1H7z"/><path fill="rgba(255,182,105,1)" d="M8 5h1v1H8zm1 0h1v1H9zm1 0h1v1h-1z"/><path fill="rgba(135,52,0,1)" d="M11 5h1v1h-1zm1 0h1v1h-1z"/><path fill="rgba(255,182,105,1)" d="M13 5h1v1h-1z"/><path fill="rgba(135,52,0,1)" d="M14 5h1v1h-1z"/><path fill="rgba(255,182,105,1)" d="M15 5h1v1h-1z"/><path fill="rgba(135,52,0,1)" d="M16 5h1v1h-1z"/><path fill="rgba(255,182,105,1)" d="M17 5h1v1h-1z"/><path fill="rgba(135,52,0,1)" d="M18 5h1v1h-1zm1 0h1v1h-1z"/><path fill="rgba(255,182,105,1)" d="M20 5h1v1h-1zm1 0h1v1h-1zm1 0h1v1h-1zm1 0h1v1h-1z"/><path fill="rgba(255,130,134,1)" d="M24 5h1v1h-1z"/><path fill="rgba(255,255,255,1)" d="M25 5h1v1h-1zm1 0h1v1h-1zm1 0h1v1h-1zm1 0h1v1h-1z"/><path fill="rgba(0,0,0,1)" d="M29 5h1v1h-1z"/><path fill="rgba(255,182,105,1)" d="M30 5h1v1h-1zm1 0h1v1h-1z"/><path fill="rgba(0,0,0,1)" d="M0 6h1v1H0zm1 0h1v1H1z"/><path fill="rgba(255,255,255,1)" d="M2 6h1v1H2z"/><path fill="rgba(0,0,0,1)" d="M3 6h1v1H3z"/><path fill="rgba(255,255,255,1)" d="M4 6h1v1H4zm1 0h1v1H5zm1 0h1v1H6z"/><path fill="rgba(0,0,0,1)" d="M7 6h1v1H7z"/><path fill="rgba(255,182,105,1)" d="M8 6h1v1H8zm1 0h1v1H9zm1 0h1v1h-1zm1 0h1v1h-1z"/><path fill="rgba(135,52,0,1)" d="M12 6h1v1h-1z"/><path fill="rgba(255,182,105,1)" d="M13 6h1v1h-1z"/><path fill="rgba(135,52,0,1)" d="M14 6h1v1h-1z"/><path fill="rgba(255,182,105,1)" d="M15 6h1v1h-1z"/><path fill="rgba(135,52,0,1)" d="M16 6h1v1h-1z"/><path fill="rgba(255,182,105,1)" d="M17 6h1v1h-1z"/><path fill="rgba(135,52,0,1)" d="M18 6h1v1h-1zm1 0h1v1h-1z"/><path fill="rgba(255,182,105,1)" d="M20 6h1v1h-1zm1 0h1v1h-1zm1 0h1v1h-1zm1 0h1v1h-1z"/><path fill="rgba(0,0,0,1)" d="M24 6h1v1h-1z"/><path fill="rgba(255,255,255,1)" d="M25 6h1v1h-1zm1 0h1v1h-1zm1 0h1v1h-1zm1 0h1v1h-1z"/><path fill="rgba(0,0,0,1)" d="M29 6h1v1h-1z"/><path fill="rgba(255,255,255,1)" d="M30 6h1v1h-1zm1 0h1v1h-1z"/><path fill="rgba(0,0,0,1)" d="M0 7h1v1H0z"/><path fill="rgba(255,255,255,1)" d="M1 7h1v1H1zm1 0h1v1H2zm1 0h1v1H3zm1 0h1v1H4zm1 0h1v1H5zm1 0h1v1H6z"/><path fill="rgba(0,0,0,1)" d="M7 7h1v1H7z"/><path fill="rgba(255,182,105,1)" d="M8 7h1v1H8zm1 0h1v1H9zm1 0h1v1h-1zm1 0h1v1h-1z"/><path fill="rgba(135,52,0,1)" d="M12 7h1v1h-1z"/><path fill="rgba(255,182,105,1)" d="M13 7h1v1h-1z"/><path fill="rgba(135,52,0,1)" d="M14 7h1v1h-1z"/><path fill="rgba(255,182,105,1)" d="M15 7h1v1h-1zm1 0h1v1h-1zm1 0h1v1h-1zm1 0h1v1h-1zm1 0h1v1h-1zm1 0h1v1h-1zm1 0h1v1h-1z"/><path fill="rgba(135,52,0,1)" d="M22 7h1v1h-1zm1 0h1v1h-1z"/><path fill="rgba(0,0,0,1)" d="M24 7h1v1h-1z"/><path fill="rgba(255,255,255,1)" d="M25 7h1v1h-1zm1 0h1v1h-1zm1 0h1v1h-1zm1 0h1v1h-1z"/><path fill="rgba(0,0,0,1)" d="M29 7h1v1h-1z"/><path fill="rgba(255,255,255,1)" d="M30 7h1v1h-1z"/><path fill="rgba(0,0,0,1)" d="M31 7h1v1h-1z"/><path fill="rgba(255,182,105,1)" d="M0 8h1v1H0z"/><path fill="rgba(255,255,255,1)" d="M1 8h1v1H1z"/><path fill="rgba(0,0,0,1)" d="M2 8h1v1H2z"/><path fill="rgba(255,255,255,1)" d="M3 8h1v1H3zm1 0h1v1H4zm1 0h1v1H5zm1 0h1v1H6z"/><path fill="rgba(0,0,0,1)" d="M7 8h1v1H7z"/><path fill="rgba(255,182,105,1)" d="M8 8h1v1H8zm1 0h1v1H9zm1 0h1v1h-1zm1 0h1v1h-1z"/><path fill="rgba(135,52,0,1)" d="M12 8h1v1h-1z"/><path fill="rgba(255,182,105,1)" d="M13 8h1v1h-1z"/><path fill="rgba(135,52,0,1)" d="M14 8h1v1h-1z"/><path fill="rgba(255,182,105,1)" d="M15 8h1v1h-1zm1 0h1v1h-1zm1 0h1v1h-1zm1 0h1v1h-1zm1 0h1v1h-1zm1 0h1v1h-1zm1 0h1v1h-1zm1 0h1v1h-1zm1 0h1v1h-1z"/><path fill="rgba(135,52,0,1)" d="M24 8h1v1h-1z"/><path fill="rgba(0,0,0,1)" d="M25 8h1v1h-1z"/><path fill="rgba(255,255,255,1)" d="M26 8h1v1h-1zm1 0h1v1h-1zm1 0h1v1h-1z"/><path fill="rgba(0,0,0,1)" d="M29 8h1v1h-1zm1 0h1v1h-1z"/><path fill="rgba(135,52,0,1)" d="M31 8h1v1h-1z"/><path fill="rgba(255,182,105,1)" d="M0 9h1v1H0z"/><path fill="rgba(255,255,255,1)" d="M1 9h1v1H1zm1 0h1v1H2zm1 0h1v1H3zm1 0h1v1H4zm1 0h1v1H5zm1 0h1v1H6z"/><path fill="rgba(0,0,0,1)" d="M7 9h1v1H7z"/><path fill="rgba(255,182,105,1)" d="M8 9h1v1H8zm1 0h1v1H9zm1 0h1v1h-1zm1 0h1v1h-1zm1 0h1v1h-1zm1 0h1v1h-1zm1 0h1v1h-1zm1 0h1v1h-1zm1 0h1v1h-1zm1 0h1v1h-1zm1 0h1v1h-1zm1 0h1v1h-1zm1 0h1v1h-1zm1 0h1v1h-1z"/><path fill="rgba(0,0,0,1)" d="M22 9h1v1h-1zm1 0h1v1h-1z"/><path fill="rgba(135,52,0,1)" d="M24 9h1v1h-1z"/><path fill="rgba(0,0,0,1)" d="M25 9h1v1h-1z"/><path fill="rgba(255,255,255,1)" d="M26 9h1v1h-1zm1 0h1v1h-1zm1 0h1v1h-1z"/><path fill="rgba(0,0,0,1)" d="M29 9h1v1h-1z"/><path fill="rgba(135,52,0,1)" d="M30 9h1v1h-1zm1 0h1v1h-1z"/><path fill="rgba(255,182,105,1)" d="M0 10h1v1H0z"/><path fill="rgba(0,0,0,1)" d="M1 10h1v1H1z"/><path fill="rgba(255,255,255,1)" d="M2 10h1v1H2zm1 0h1v1H3zm1 0h1v1H4zm1 0h1v1H5z"/><path fill="rgba(0,0,0,1)" d="M6 10h1v1H6z"/><path fill="rgba(255,182,105,1)" d="M7 10h1v1H7zm1 0h1v1H8zm1 0h1v1H9zm1 0h1v1h-1zm1 0h1v1h-1zm1 0h1v1h-1zm1 0h1v1h-1zm1 0h1v1h-1zm1 0h1v1h-1zm1 0h1v1h-1zm1 0h1v1h-1zm1 0h1v1h-1zm1 0h1v1h-1zm1 0h1v1h-1z"/><path fill="rgba(0,0,0,1)" d="M21 10h1v1h-1zm1 0h1v1h-1z"/><path fill="rgba(255,182,105,1)" d="M23 10h1v1h-1z"/><path fill="rgba(135,52,0,1)" d="M24 10h1v1h-1z"/><path fill="rgba(0,0,0,1)" d="M25 10h1v1h-1z"/><path fill="rgba(255,255,255,1)" d="M26 10h1v1h-1zm1 0h1v1h-1z"/><path fill="rgba(255,182,105,1)" d="M28 10h1v1h-1zm1 0h1v1h-1z"/><path fill="rgba(0,0,0,1)" d="M30 10h1v1h-1z"/><path fill="rgba(135,52,0,1)" d="M31 10h1v1h-1z"/><path fill="rgba(255,255,255,1)" d="M0 11h1v1H0z"/><path fill="rgba(0,0,0,1)" d="M1 11h1v1H1z"/><path fill="rgba(255,255,255,1)" d="M2 11h1v1H2zm1 0h1v1H3zm1 0h1v1H4zm1 0h1v1H5z"/><path fill="rgba(0,0,0,1)" d="M6 11h1v1H6z"/><path fill="rgba(135,52,0,1)" d="M7 11h1v1H7z"/><path fill="rgba(255,182,105,1)" d="M8 11h1v1H8zm1 0h1v1H9zm1 0h1v1h-1zm1 0h1v1h-1zm1 0h1v1h-1zm1 0h1v1h-1zm1 0h1v1h-1z"/><path fill="rgba(255,255,255,1)" d="M15 11h1v1h-1zm1 0h1v1h-1z"/><path fill="rgba(255,182,105,1)" d="M17 11h1v1h-1zm1 0h1v1h-1zm1 0h1v1h-1z"/><path fill="rgba(0,0,0,1)" d="M20 11h1v1h-1zm1 0h1v1h-1z"/><path fill="rgba(255,182,105,1)" d="M22 11h1v1h-1zm1 0h1v1h-1zm1 0h1v1h-1zm1 0h1v1h-1z"/><path fill="rgba(0,0,0,1)" d="M26 11h1v1h-1z"/><path fill="rgba(255,182,105,1)" d="M27 11h1v1h-1zm1 0h1v1h-1zm1 0h1v1h-1z"/><path fill="rgba(0,0,0,1)" d="M30 11h1v1h-1z"/><path fill="rgba(135,52,0,1)" d="M31 11h1v1h-1z"/><path fill="rgba(255,255,255,1)" d="M0 12h1v1H0z"/><path fill="rgba(0,0,0,1)" d="M1 12h1v1H1z"/><path fill="rgba(255,255,255,1)" d="M2 12h1v1H2zm1 0h1v1H3zm1 0h1v1H4zm1 0h1v1H5z"/><path fill="rgba(0,0,0,1)" d="M6 12h1v1H6z"/><path fill="rgba(255,182,105,1)" d="M7 12h1v1H7z"/><path fill="rgba(0,0,0,1)" d="M8 12h1v1H8zm1 0h1v1H9z"/><path fill="rgba(255,182,105,1)" d="M10 12h1v1h-1zm1 0h1v1h-1zm1 0h1v1h-1zm1 0h1v1h-1z"/><path fill="rgba(255,255,255,1)" d="M14 12h1v1h-1zm1 0h1v1h-1zm1 0h1v1h-1zm1 0h1v1h-1zm1 0h1v1h-1z"/><path fill="rgba(255,182,105,1)" d="M19 12h1v1h-1z"/><path fill="rgba(0,0,0,1)" d="M20 12h1v1h-1zm1 0h1v1h-1z"/><path fill="rgba(255,182,105,1)" d="M22 12h1v1h-1zm1 0h1v1h-1zm1 0h1v1h-1zm1 0h1v1h-1z"/><path fill="rgba(0,0,0,1)" d="M26 12h1v1h-1z"/><path fill="rgba(255,182,105,1)" d="M27 12h1v1h-1zm1 0h1v1h-1zm1 0h1v1h-1z"/><path fill="rgba(0,0,0,1)" d="M30 12h1v1h-1z"/><path fill="rgba(135,52,0,1)" d="M31 12h1v1h-1z"/><path fill="rgba(0,0,0,1)" d="M0 13h1v1H0zm1 0h1v1H1z"/><path fill="rgba(255,255,255,1)" d="M2 13h1v1H2zm1 0h1v1H3zm1 0h1v1H4zm1 0h1v1H5z"/><path fill="rgba(0,0,0,1)" d="M6 13h1v1H6z"/><path fill="rgba(135,52,0,1)" d="M7 13h1v1H7z"/><path fill="rgba(255,182,105,1)" d="M8 13h1v1H8z"/><path fill="rgba(0,0,0,1)" d="M9 13h1v1H9zm1 0h1v1h-1zm1 0h1v1h-1z"/><path fill="rgba(255,182,105,1)" d="M12 13h1v1h-1zm1 0h1v1h-1z"/><path fill="rgba(255,255,255,1)" d="M14 13h1v1h-1zm1 0h1v1h-1zm1 0h1v1h-1z"/><path fill="rgba(255,182,105,1)" d="M17 13h1v1h-1z"/><path fill="rgba(255,255,255,1)" d="M18 13h1v1h-1zm1 0h1v1h-1z"/><path fill="rgba(0,0,0,1)" d="M20 13h1v1h-1z"/><path fill="rgba(255,182,105,1)" d="M21 13h1v1h-1zm1 0h1v1h-1zm1 0h1v1h-1zm1 0h1v1h-1zm1 0h1v1h-1z"/><path fill="rgba(0,0,0,1)" d="M26 13h1v1h-1z"/><path fill="rgba(255,182,105,1)" d="M27 13h1v1h-1zm1 0h1v1h-1zm1 0h1v1h-1zm1 0h1v1h-1z"/><path fill="rgba(0,0,0,1)" d="M31 13h1v1h-1z"/><path fill="rgba(135,52,0,1)" d="M0 14h1v1H0z"/><path fill="rgba(0,0,0,1)" d="M1 14h1v1H1z"/><path fill="rgba(255,182,105,1)" d="M2 14h1v1H2z"/><path fill="rgba(255,255,255,1)" d="M3 14h1v1H3zm1 0h1v1H4z"/><path fill="rgba(255,182,105,1)" d="M5 14h1v1H5z"/><path fill="rgba(0,0,0,1)" d="M6 14h1v1H6z"/><path fill="rgba(135,52,0,1)" d="M7 14h1v1H7z"/><path fill="rgba(255,182,105,1)" d="M8 14h1v1H8zm1 0h1v1H9z"/><path fill="rgba(0,0,0,1)" d="M10 14h1v1h-1zm1 0h1v1h-1zm1 0h1v1h-1z"/><path fill="rgba(255,182,105,1)" d="M13 14h1v1h-1z"/><path fill="rgba(255,255,255,1)" d="M14 14h1v1h-1zm1 0h1v1h-1z"/><path fill="rgba(255,182,105,1)" d="M16 14h1v1h-1zm1 0h1v1h-1zm1 0h1v1h-1z"/><path fill="rgba(255,255,255,1)" d="M19 14h1v1h-1zm1 0h1v1h-1zm1 0h1v1h-1z"/><path fill="rgba(255,182,105,1)" d="M22 14h1v1h-1zm1 0h1v1h-1zm1 0h1v1h-1zm1 0h1v1h-1z"/><path fill="rgba(0,0,0,1)" d="M26 14h1v1h-1z"/><path fill="rgba(255,182,105,1)" d="M27 14h1v1h-1zm1 0h1v1h-1zm1 0h1v1h-1zm1 0h1v1h-1z"/><path fill="rgba(0,0,0,1)" d="M31 14h1v1h-1z"/><path fill="rgba(135,52,0,1)" d="M0 15h1v1H0z"/><path fill="rgba(0,0,0,1)" d="M1 15h1v1H1z"/><path fill="rgba(255,182,105,1)" d="M2 15h1v1H2zm1 0h1v1H3zm1 0h1v1H4zm1 0h1v1H5z"/><path fill="rgba(0,0,0,1)" d="M6 15h1v1H6z"/><path fill="rgba(255,182,105,1)" d="M7 15h1v1H7zm1 0h1v1H8zm1 0h1v1H9zm1 0h1v1h-1zm1 0h1v1h-1z"/><path fill="rgba(0,0,0,1)" d="M12 15h1v1h-1zm1 0h1v1h-1z"/><path fill="rgba(255,255,255,1)" d="M14 15h1v1h-1zm1 0h1v1h-1z"/><path fill="rgba(135,52,0,1)" d="M16 15h1v1h-1z"/><path fill="rgba(255,182,105,1)" d="M17 15h1v1h-1z"/><path fill="rgba(135,52,0,1)" d="M18 15h1v1h-1z"/><path fill="rgba(255,255,255,1)" d="M19 15h1v1h-1zm1 0h1v1h-1zm1 0h1v1h-1zm1 0h1v1h-1z"/><path fill="rgba(255,182,105,1)" d="M23 15h1v1h-1zm1 0h1v1h-1zm1 0h1v1h-1z"/><path fill="rgba(0,0,0,1)" d="M26 15h1v1h-1z"/><path fill="rgba(255,182,105,1)" d="M27 15h1v1h-1zm1 0h1v1h-1zm1 0h1v1h-1zm1 0h1v1h-1zm1 0h1v1h-1z"/><path fill="rgba(135,52,0,1)" d="M0 16h1v1H0z"/><path fill="rgba(0,0,0,1)" d="M1 16h1v1H1z"/><path fill="rgba(255,182,105,1)" d="M2 16h1v1H2zm1 0h1v1H3zm1 0h1v1H4zm1 0h1v1H5zm1 0h1v1H6zm1 0h1v1H7zm1 0h1v1H8zm1 0h1v1H9zm1 0h1v1h-1zm1 0h1v1h-1z"/><path fill="rgba(255,255,255,1)" d="M12 16h1v1h-1zm1 0h1v1h-1zm1 0h1v1h-1zm1 0h1v1h-1zm1 0h1v1h-1z"/><path fill="rgba(135,52,0,1)" d="M17 16h1v1h-1z"/><path fill="rgba(255,255,255,1)" d="M18 16h1v1h-1zm1 0h1v1h-1z"/><path fill="rgba(255,182,105,1)" d="M20 16h1v1h-1zm1 0h1v1h-1z"/><path fill="rgba(255,255,255,1)" d="M22 16h1v1h-1zm1 0h1v1h-1z"/><path fill="rgba(255,182,105,1)" d="M24 16h1v1h-1zm1 0h1v1h-1z"/><path fill="rgba(0,0,0,1)" d="M26 16h1v1h-1z"/><path fill="rgba(255,182,105,1)" d="M27 16h1v1h-1zm1 0h1v1h-1zm1 0h1v1h-1zm1 0h1v1h-1zm1 0h1v1h-1z"/><path fill="rgba(135,52,0,1)" d="M0 17h1v1H0z"/><path fill="rgba(0,0,0,1)" d="M1 17h1v1H1z"/><path fill="rgba(255,182,105,1)" d="M2 17h1v1H2zm1 0h1v1H3zm1 0h1v1H4zm1 0h1v1H5z"/><path fill="rgba(0,0,0,1)" d="M6 17h1v1H6z"/><path fill="rgba(255,182,105,1)" d="M7 17h1v1H7zm1 0h1v1H8zm1 0h1v1H9zm1 0h1v1h-1z"/><path fill="rgba(255,255,255,1)" d="M11 17h1v1h-1zm1 0h1v1h-1z"/><path fill="rgba(255,182,105,1)" d="M13 17h1v1h-1zm1 0h1v1h-1zm1 0h1v1h-1z"/><path fill="rgba(255,255,255,1)" d="M16 17h1v1h-1zm1 0h1v1h-1zm1 0h1v1h-1zm1 0h1v1h-1z"/><path fill="rgba(255,182,105,1)" d="M20 17h1v1h-1zm1 0h1v1h-1zm1 0h1v1h-1z"/><path fill="rgba(255,255,255,1)" d="M23 17h1v1h-1zm1 0h1v1h-1z"/><path fill="rgba(255,182,105,1)" d="M25 17h1v1h-1z"/><path fill="rgba(0,0,0,1)" d="M26 17h1v1h-1z"/><path fill="rgba(255,255,255,1)" d="M27 17h1v1h-1z"/><path fill="rgba(255,182,105,1)" d="M28 17h1v1h-1zm1 0h1v1h-1zm1 0h1v1h-1zm1 0h1v1h-1z"/><path fill="rgba(135,52,0,1)" d="M0 18h1v1H0z"/><path fill="rgba(0,0,0,1)" d="M1 18h1v1H1z"/><path fill="rgba(255,182,105,1)" d="M2 18h1v1H2zm1 0h1v1H3zm1 0h1v1H4zm1 0h1v1H5z"/><path fill="rgba(0,0,0,1)" d="M6 18h1v1H6z"/><path fill="rgba(255,182,105,1)" d="M7 18h1v1H7zm1 0h1v1H8zm1 0h1v1H9zm1 0h1v1h-1z"/><path fill="rgba(255,255,255,1)" d="M11 18h1v1h-1z"/><path fill="rgba(255,182,105,1)" d="M12 18h1v1h-1zm1 0h1v1h-1zm1 0h1v1h-1zm1 0h1v1h-1z"/><path fill="rgba(255,255,255,1)" d="M16 18h1v1h-1z"/><path fill="rgba(0,0,0,1)" d="M17 18h1v1h-1z"/><path fill="rgba(135,52,0,1)" d="M18 18h1v1h-1z"/><path fill="rgba(255,255,255,1)" d="M19 18h1v1h-1zm1 0h1v1h-1zm1 0h1v1h-1z"/><path fill="rgba(255,182,105,1)" d="M22 18h1v1h-1z"/><path fill="rgba(255,255,255,1)" d="M23 18h1v1h-1zm1 0h1v1h-1z"/><path fill="rgba(255,182,105,1)" d="M25 18h1v1h-1z"/><path fill="rgba(0,0,0,1)" d="M26 18h1v1h-1z"/><path fill="rgba(255,255,255,1)" d="M27 18h1v1h-1z"/><path fill="rgba(255,182,105,1)" d="M28 18h1v1h-1zm1 0h1v1h-1zm1 0h1v1h-1zm1 0h1v1h-1z"/><path fill="rgba(135,52,0,1)" d="M0 19h1v1H0z"/><path fill="rgba(0,0,0,1)" d="M1 19h1v1H1z"/><path fill="rgba(255,182,105,1)" d="M2 19h1v1H2zm1 0h1v1H3zm1 0h1v1H4zm1 0h1v1H5z"/><path fill="rgba(0,0,0,1)" d="M6 19h1v1H6z"/><path fill="rgba(255,182,105,1)" d="M7 19h1v1H7zm1 0h1v1H8zm1 0h1v1H9z"/><path fill="rgba(255,255,255,1)" d="M10 19h1v1h-1zm1 0h1v1h-1z"/><path fill="rgba(255,182,105,1)" d="M12 19h1v1h-1zm1 0h1v1h-1zm1 0h1v1h-1z"/><path fill="rgba(255,255,255,1)" d="M15 19h1v1h-1z"/><path fill="rgba(0,0,0,1)" d="M16 19h1v1h-1zm1 0h1v1h-1zm1 0h1v1h-1zm1 0h1v1h-1zm1 0h1v1h-1z"/><path fill="rgba(255,255,255,1)" d="M21 19h1v1h-1zm1 0h1v1h-1zm1 0h1v1h-1zm1 0h1v1h-1z"/><path fill="rgba(255,182,105,1)" d="M25 19h1v1h-1z"/><path fill="rgba(135,52,0,1)" d="M26 19h1v1h-1z"/><path fill="rgba(255,255,255,1)" d="M27 19h1v1h-1z"/><path fill="rgba(255,182,105,1)" d="M28 19h1v1h-1zm1 0h1v1h-1zm1 0h1v1h-1zm1 0h1v1h-1z"/><path fill="rgba(135,52,0,1)" d="M0 20h1v1H0z"/><path fill="rgba(0,0,0,1)" d="M1 20h1v1H1z"/><path fill="rgba(255,182,105,1)" d="M2 20h1v1H2zm1 0h1v1H3zm1 0h1v1H4zm1 0h1v1H5z"/><path fill="rgba(0,0,0,1)" d="M6 20h1v1H6z"/><path fill="rgba(255,182,105,1)" d="M7 20h1v1H7zm1 0h1v1H8zm1 0h1v1H9z"/><path fill="rgba(255,255,255,1)" d="M10 20h1v1h-1zm1 0h1v1h-1z"/><path fill="rgba(255,182,105,1)" d="M12 20h1v1h-1z"/><path fill="rgba(255,255,255,1)" d="M13 20h1v1h-1zm1 0h1v1h-1z"/><path fill="rgba(0,0,0,1)" d="M15 20h1v1h-1z"/><path fill="rgba(255,255,255,1)" d="M16 20h1v1h-1zm1 0h1v1h-1zm1 0h1v1h-1zm1 0h1v1h-1zm1 0h1v1h-1z"/><path fill="rgba(135,52,0,1)" d="M21 20h1v1h-1z"/><path fill="rgba(0,0,0,1)" d="M22 20h1v1h-1z"/><path fill="rgba(255,255,255,1)" d="M23 20h1v1h-1zm1 0h1v1h-1z"/><path fill="rgba(255,182,105,1)" d="M25 20h1v1h-1z"/><path fill="rgba(135,52,0,1)" d="M26 20h1v1h-1z"/><path fill="rgba(255,255,255,1)" d="M27 20h1v1h-1z"/><path fill="rgba(255,182,105,1)" d="M28 20h1v1h-1zm1 0h1v1h-1zm1 0h1v1h-1zm1 0h1v1h-1z"/><path fill="rgba(135,52,0,1)" d="M0 21h1v1H0z"/><path fill="rgba(0,0,0,1)" d="M1 21h1v1H1z"/><path fill="rgba(255,182,105,1)" d="M2 21h1v1H2zm1 0h1v1H3zm1 0h1v1H4zm1 0h1v1H5z"/><path fill="rgba(0,0,0,1)" d="M6 21h1v1H6z"/><path fill="rgba(255,182,105,1)" d="M7 21h1v1H7zm1 0h1v1H8zm1 0h1v1H9z"/><path fill="rgba(255,255,255,1)" d="M10 21h1v1h-1zm1 0h1v1h-1zm1 0h1v1h-1z"/><path fill="rgba(135,52,0,1)" d="M13 21h1v1h-1zm1 0h1v1h-1z"/><path fill="rgba(255,255,255,1)" d="M15 21h1v1h-1zm1 0h1v1h-1zm1 0h1v1h-1zm1 0h1v1h-1zm1 0h1v1h-1zm1 0h1v1h-1zm1 0h1v1h-1zm1 0h1v1h-1zm1 0h1v1h-1zm1 0h1v1h-1z"/><path fill="rgba(255,182,105,1)" d="M25 21h1v1h-1z"/><path fill="rgba(135,52,0,1)" d="M26 21h1v1h-1z"/><path fill="rgba(255,255,255,1)" d="M27 21h1v1h-1zm1 0h1v1h-1z"/><path fill="rgba(255,182,105,1)" d="M29 21h1v1h-1zm1 0h1v1h-1zm1 0h1v1h-1z"/><path fill="rgba(135,52,0,1)" d="M0 22h1v1H0z"/><path fill="rgba(0,0,0,1)" d="M1 22h1v1H1z"/><path fill="rgba(255,182,105,1)" d="M2 22h1v1H2zm1 0h1v1H3zm1 0h1v1H4zm1 0h1v1H5z"/><path fill="rgba(135,52,0,1)" d="M6 22h1v1H6z"/><path fill="rgba(0,0,0,1)" d="M7 22h1v1H7z"/><path fill="rgba(135,52,0,1)" d="M8 22h1v1H8z"/><path fill="rgba(0,0,0,1)" d="M9 22h1v1H9z"/><path fill="rgba(255,182,105,1)" d="M10 22h1v1h-1z"/><path fill="rgba(255,255,255,1)" d="M11 22h1v1h-1zm1 0h1v1h-1zm1 0h1v1h-1zm1 0h1v1h-1zm1 0h1v1h-1zm1 0h1v1h-1zm1 0h1v1h-1zm1 0h1v1h-1zm1 0h1v1h-1zm1 0h1v1h-1zm1 0h1v1h-1zm1 0h1v1h-1zm1 0h1v1h-1z"/><path fill="rgba(255,182,105,1)" d="M24 22h1v1h-1z"/><path fill="rgba(135,52,0,1)" d="M25 22h1v1h-1z"/><path fill="rgba(255,182,105,1)" d="M26 22h1v1h-1z"/><path fill="rgba(255,255,255,1)" d="M27 22h1v1h-1zm1 0h1v1h-1z"/><path fill="rgba(255,182,105,1)" d="M29 22h1v1h-1zm1 0h1v1h-1z"/><path fill="rgba(0,0,0,1)" d="M31 22h1v1h-1z"/><path fill="rgba(135,52,0,1)" d="M0 23h1v1H0z"/><path fill="rgba(0,0,0,1)" d="M1 23h1v1H1z"/><path fill="rgba(255,182,105,1)" d="M2 23h1v1H2zm1 0h1v1H3zm1 0h1v1H4zm1 0h1v1H5zm1 0h1v1H6z"/><path fill="rgba(135,52,0,1)" d="M7 23h1v1H7z"/><path fill="rgba(255,182,105,1)" d="M8 23h1v1H8z"/><path fill="rgba(135,52,0,1)" d="M9 23h1v1H9z"/><path fill="rgba(0,0,0,1)" d="M10 23h1v1h-1zm1 0h1v1h-1z"/><path fill="rgba(255,182,105,1)" d="M12 23h1v1h-1z"/><path fill="rgba(255,255,255,1)" d="M13 23h1v1h-1zm1 0h1v1h-1zm1 0h1v1h-1zm1 0h1v1h-1zm1 0h1v1h-1zm1 0h1v1h-1zm1 0h1v1h-1zm1 0h1v1h-1zm1 0h1v1h-1z"/><path fill="rgba(255,182,105,1)" d="M22 23h1v1h-1zm1 0h1v1h-1zm1 0h1v1h-1z"/><path fill="rgba(135,52,0,1)" d="M25 23h1v1h-1z"/><path fill="rgba(255,182,105,1)" d="M26 23h1v1h-1z"/><path fill="rgba(255,255,255,1)" d="M27 23h1v1h-1zm1 0h1v1h-1z"/><path fill="rgba(255,182,105,1)" d="M29 23h1v1h-1zm1 0h1v1h-1z"/><path fill="rgba(135,52,0,1)" d="M31 23h1v1h-1zM0 24h1v1H0z"/><path fill="rgba(0,0,0,1)" d="M1 24h1v1H1z"/><path fill="rgba(255,182,105,1)" d="M2 24h1v1H2zm1 0h1v1H3zm1 0h1v1H4zm1 0h1v1H5zm1 0h1v1H6z"/><path fill="rgba(135,52,0,1)" d="M7 24h1v1H7z"/><path fill="rgba(255,182,105,1)" d="M8 24h1v1H8zm1 0h1v1H9z"/><path fill="rgba(135,52,0,1)" d="M10 24h1v1h-1zm1 0h1v1h-1z"/><path fill="rgba(0,0,0,1)" d="M12 24h1v1h-1z"/><path fill="rgba(255,182,105,1)" d="M13 24h1v1h-1zm1 0h1v1h-1z"/><path fill="rgba(255,255,255,1)" d="M15 24h1v1h-1zm1 0h1v1h-1zm1 0h1v1h-1zm1 0h1v1h-1zm1 0h1v1h-1zm1 0h1v1h-1z"/><path fill="rgba(255,182,105,1)" d="M21 24h1v1h-1zm1 0h1v1h-1z"/><path fill="rgba(135,52,0,1)" d="M23 24h1v1h-1zm1 0h1v1h-1z"/><path fill="rgba(255,182,105,1)" d="M25 24h1v1h-1z"/><path fill="rgba(255,255,255,1)" d="M26 24h1v1h-1zm1 0h1v1h-1zm1 0h1v1h-1z"/><path fill="rgba(255,182,105,1)" d="M29 24h1v1h-1z"/><path fill="rgba(0,0,0,1)" d="M30 24h1v1h-1z"/><path fill="rgba(135,52,0,1)" d="M31 24h1v1h-1zM0 25h1v1H0zm1 0h1v1H1z"/><path fill="rgba(0,0,0,1)" d="M2 25h1v1H2z"/><path fill="rgba(255,182,105,1)" d="M3 25h1v1H3zm1 0h1v1H4zm1 0h1v1H5zm1 0h1v1H6z"/><path fill="rgba(135,52,0,1)" d="M7 25h1v1H7zm1 0h1v1H8z"/><path fill="rgba(255,255,255,1)" d="M9 25h1v1H9z"/><path fill="rgba(255,182,105,1)" d="M10 25h1v1h-1z"/><path fill="rgba(135,52,0,1)" d="M11 25h1v1h-1zm1 0h1v1h-1zm1 0h1v1h-1z"/><path fill="rgba(255,182,105,1)" d="M14 25h1v1h-1zm1 0h1v1h-1zm1 0h1v1h-1zm1 0h1v1h-1zm1 0h1v1h-1zm1 0h1v1h-1zm1 0h1v1h-1z"/><path fill="rgba(135,52,0,1)" d="M21 25h1v1h-1zm1 0h1v1h-1zm1 0h1v1h-1zm1 0h1v1h-1z"/><path fill="rgba(255,182,105,1)" d="M25 25h1v1h-1z"/><path fill="rgba(255,255,255,1)" d="M26 25h1v1h-1zm1 0h1v1h-1zm1 0h1v1h-1z"/><path fill="rgba(255,182,105,1)" d="M29 25h1v1h-1z"/><path fill="rgba(0,0,0,1)" d="M30 25h1v1h-1z"/><path fill="rgba(135,52,0,1)" d="M31 25h1v1h-1zM0 26h1v1H0zm1 0h1v1H1z"/><path fill="rgba(0,0,0,1)" d="M2 26h1v1H2z"/><path fill="rgba(255,182,105,1)" d="M3 26h1v1H3zm1 0h1v1H4zm1 0h1v1H5zm1 0h1v1H6zm1 0h1v1H7z"/><path fill="rgba(135,52,0,1)" d="M8 26h1v1H8z"/><path fill="rgba(255,255,255,1)" d="M9 26h1v1H9zm1 0h1v1h-1z"/><path fill="rgba(255,182,105,1)" d="M11 26h1v1h-1z"/><path fill="rgba(135,52,0,1)" d="M12 26h1v1h-1zm1 0h1v1h-1zm1 0h1v1h-1zm1 0h1v1h-1zm1 0h1v1h-1zm1 0h1v1h-1zm1 0h1v1h-1zm1 0h1v1h-1zm1 0h1v1h-1zm1 0h1v1h-1zm1 0h1v1h-1zm1 0h1v1h-1z"/><path fill="rgba(255,182,105,1)" d="M24 26h1v1h-1z"/><path fill="rgba(255,255,255,1)" d="M25 26h1v1h-1zm1 0h1v1h-1zm1 0h1v1h-1zm1 0h1v1h-1z"/><path fill="rgba(255,182,105,1)" d="M29 26h1v1h-1z"/><path fill="rgba(135,52,0,1)" d="M30 26h1v1h-1zm1 0h1v1h-1zM0 27h1v1H0zm1 0h1v1H1z"/><path fill="rgba(0,0,0,1)" d="M2 27h1v1H2z"/><path fill="rgba(255,182,105,1)" d="M3 27h1v1H3zm1 0h1v1H4zm1 0h1v1H5zm1 0h1v1H6zm1 0h1v1H7z"/><path fill="rgba(135,52,0,1)" d="M8 27h1v1H8z"/><path fill="rgba(255,255,255,1)" d="M9 27h1v1H9zm1 0h1v1h-1zm1 0h1v1h-1z"/><path fill="rgba(255,182,105,1)" d="M12 27h1v1h-1zm1 0h1v1h-1z"/><path fill="rgba(135,52,0,1)" d="M14 27h1v1h-1zm1 0h1v1h-1zm1 0h1v1h-1zm1 0h1v1h-1zm1 0h1v1h-1zm1 0h1v1h-1zm1 0h1v1h-1zm1 0h1v1h-1zm1 0h1v1h-1zm1 0h1v1h-1z"/><path fill="rgba(255,182,105,1)" d="M24 27h1v1h-1z"/><path fill="rgba(255,255,255,1)" d="M25 27h1v1h-1zm1 0h1v1h-1zm1 0h1v1h-1z"/><path fill="rgba(255,182,105,1)" d="M28 27h1v1h-1zm1 0h1v1h-1z"/><path fill="rgba(135,52,0,1)" d="M30 27h1v1h-1zm1 0h1v1h-1zM0 28h1v1H0z"/><path fill="rgba(0,0,0,1)" d="M1 28h1v1H1z"/><path fill="rgba(135,52,0,1)" d="M2 28h1v1H2z"/><path fill="rgba(255,182,105,1)" d="M3 28h1v1H3zm1 0h1v1H4zm1 0h1v1H5zm1 0h1v1H6zm1 0h1v1H7z"/><path fill="rgba(135,52,0,1)" d="M8 28h1v1H8zm1 0h1v1H9z"/><path fill="rgba(255,255,255,1)" d="M10 28h1v1h-1zm1 0h1v1h-1zm1 0h1v1h-1zm1 0h1v1h-1z"/><path fill="rgba(255,182,105,1)" d="M14 28h1v1h-1z"/><path fill="rgba(135,52,0,1)" d="M15 28h1v1h-1zm1 0h1v1h-1zm1 0h1v1h-1zm1 0h1v1h-1zm1 0h1v1h-1zm1 0h1v1h-1zm1 0h1v1h-1z"/><path fill="rgba(255,182,105,1)" d="M22 28h1v1h-1zm1 0h1v1h-1z"/><path fill="rgba(255,255,255,1)" d="M24 28h1v1h-1zm1 0h1v1h-1zm1 0h1v1h-1zm1 0h1v1h-1z"/><path fill="rgba(255,182,105,1)" d="M28 28h1v1h-1zm1 0h1v1h-1z"/><path fill="rgba(135,52,0,1)" d="M30 28h1v1h-1zm1 0h1v1h-1zM0 29h1v1H0z"/><path fill="rgba(0,0,0,1)" d="M1 29h1v1H1z"/><path fill="rgba(135,52,0,1)" d="M2 29h1v1H2z"/><path fill="rgba(255,182,105,1)" d="M3 29h1v1H3zm1 0h1v1H4zm1 0h1v1H5zm1 0h1v1H6zm1 0h1v1H7z"/><path fill="rgba(135,52,0,1)" d="M8 29h1v1H8zm1 0h1v1H9z"/><path fill="rgba(255,255,255,1)" d="M10 29h1v1h-1zm1 0h1v1h-1zm1 0h1v1h-1zm1 0h1v1h-1zm1 0h1v1h-1z"/><path fill="rgba(255,182,105,1)" d="M15 29h1v1h-1zm1 0h1v1h-1z"/><path fill="rgba(135,52,0,1)" d="M17 29h1v1h-1zm1 0h1v1h-1zm1 0h1v1h-1zm1 0h1v1h-1z"/><path fill="rgba(255,182,105,1)" d="M21 29h1v1h-1zm1 0h1v1h-1z"/><path fill="rgba(255,255,255,1)" d="M23 29h1v1h-1zm1 0h1v1h-1zm1 0h1v1h-1zm1 0h1v1h-1zm1 0h1v1h-1z"/><path fill="rgba(255,182,105,1)" d="M28 29h1v1h-1zm1 0h1v1h-1z"/><path fill="rgba(135,52,0,1)" d="M30 29h1v1h-1zm1 0h1v1h-1zM0 30h1v1H0z"/><path fill="rgba(0,0,0,1)" d="M1 30h1v1H1z"/><path fill="rgba(135,52,0,1)" d="M2 30h1v1H2zm1 0h1v1H3z"/><path fill="rgba(255,182,105,1)" d="M4 30h1v1H4zm1 0h1v1H5zm1 0h1v1H6zm1 0h1v1H7zm1 0h1v1H8z"/><path fill="rgba(135,52,0,1)" d="M9 30h1v1H9z"/><path fill="rgba(255,182,105,1)" d="M10 30h1v1h-1z"/><path fill="rgba(255,255,255,1)" d="M11 30h1v1h-1zm1 0h1v1h-1zm1 0h1v1h-1zm1 0h1v1h-1zm1 0h1v1h-1zm1 0h1v1h-1z"/><path fill="rgba(255,182,105,1)" d="M17 30h1v1h-1zm1 0h1v1h-1zm1 0h1v1h-1zm1 0h1v1h-1z"/><path fill="rgba(255,255,255,1)" d="M21 30h1v1h-1zm1 0h1v1h-1zm1 0h1v1h-1zm1 0h1v1h-1zm1 0h1v1h-1zm1 0h1v1h-1zm1 0h1v1h-1z"/><path fill="rgba(255,182,105,1)" d="M28 30h1v1h-1zm1 0h1v1h-1z"/><path fill="rgba(135,52,0,1)" d="M30 30h1v1h-1zm1 0h1v1h-1zM0 31h1v1H0z"/><path fill="rgba(0,0,0,1)" d="M1 31h1v1H1z"/><path fill="rgba(135,52,0,1)" d="M2 31h1v1H2zm1 0h1v1H3z"/><path fill="rgba(255,182,105,1)" d="M4 31h1v1H4zm1 0h1v1H5zm1 0h1v1H6zm1 0h1v1H7zm1 0h1v1H8z"/><path fill="rgba(135,52,0,1)" d="M9 31h1v1H9z"/><path fill="rgba(255,182,105,1)" d="M10 31h1v1h-1zm1 0h1v1h-1z"/><path fill="rgba(255,255,255,1)" d="M12 31h1v1h-1zm1 0h1v1h-1zm1 0h1v1h-1zm1 0h1v1h-1zm1 0h1v1h-1zm1 0h1v1h-1zm1 0h1v1h-1zm1 0h1v1h-1zm1 0h1v1h-1zm1 0h1v1h-1zm1 0h1v1h-1zm1 0h1v1h-1zm1 0h1v1h-1zm1 0h1v1h-1zm1 0h1v1h-1z"/><path fill="rgba(255,182,105,1)" d="M27 31h1v1h-1zm1 0h1v1h-1zm1 0h1v1h-1z"/><path fill="rgba(135,52,0,1)" d="M30 31h1v1h-1zm1 0h1v1h-1z"/></svg>