<svg xmlns="http://www.w3.org/2000/svg" viewBox="0 0 32 32"><path fill="rgba(255,255,255,1)" d="M0 0h1v1H0z"/><path fill="rgba(0,0,0,1)" d="M1 0h1v1H1z"/><path fill="rgba(255,182,105,1)" d="M2 0h1v1H2zm1 0h1v1H3zm1 0h1v1H4zm1 0h1v1H5z"/><path fill="rgba(0,0,0,1)" d="M6 0h1v1H6z"/><path fill="rgba(135,52,0,1)" d="M7 0h1v1H7zm1 0h1v1H8zm1 0h1v1H9z"/><path fill="rgba(0,0,0,1)" d="M10 0h1v1h-1zm1 0h1v1h-1zm1 0h1v1h-1z"/><path fill="rgba(255,182,105,1)" d="M13 0h1v1h-1z"/><path fill="rgba(135,52,0,1)" d="M14 0h1v1h-1zm1 0h1v1h-1zm1 0h1v1h-1zm1 0h1v1h-1z"/><path fill="rgba(255,182,105,1)" d="M18 0h1v1h-1z"/><path fill="rgba(135,52,0,1)" d="M19 0h1v1h-1z"/><path fill="rgba(0,0,0,1)" d="M20 0h1v1h-1zm1 0h1v1h-1zm1 0h1v1h-1z"/><path fill="rgba(135,52,0,1)" d="M23 0h1v1h-1z"/><path fill="rgba(0,0,0,1)" d="M24 0h1v1h-1z"/><path fill="rgba(255,182,105,1)" d="M25 0h1v1h-1zm1 0h1v1h-1zm1 0h1v1h-1zm1 0h1v1h-1zm1 0h1v1h-1z"/><path fill="rgba(0,0,0,1)" d="M30 0h1v1h-1z"/><path fill="rgba(255,255,255,1)" d="M31 0h1v1h-1zM0 1h1v1H0z"/><path fill="rgba(0,0,0,1)" d="M1 1h1v1H1z"/><path fill="rgba(255,182,105,1)" d="M2 1h1v1H2zm1 0h1v1H3zm1 0h1v1H4zm1 0h1v1H5zm1 0h1v1H6z"/><path fill="rgba(0,0,0,1)" d="M7 1h1v1H7zm1 0h1v1H8zm1 0h1v1H9z"/><path fill="rgba(255,182,105,1)" d="M10 1h1v1h-1z"/><path fill="rgba(135,52,0,1)" d="M11 1h1v1h-1zm1 0h1v1h-1z"/><path fill="rgba(255,182,105,1)" d="M13 1h1v1h-1z"/><path fill="rgba(135,52,0,1)" d="M14 1h1v1h-1zm1 0h1v1h-1zm1 0h1v1h-1zm1 0h1v1h-1z"/><path fill="rgba(255,182,105,1)" d="M18 1h1v1h-1z"/><path fill="rgba(135,52,0,1)" d="M19 1h1v1h-1zm1 0h1v1h-1z"/><path fill="rgba(255,182,105,1)" d="M21 1h1v1h-1z"/><path fill="rgba(135,52,0,1)" d="M22 1h1v1h-1z"/><path fill="rgba(0,0,0,1)" d="M23 1h1v1h-1z"/><path fill="rgba(255,182,105,1)" d="M24 1h1v1h-1zm1 0h1v1h-1zm1 0h1v1h-1zm1 0h1v1h-1zm1 0h1v1h-1z"/><path fill="rgba(0,0,0,1)" d="M29 1h1v1h-1z"/><path fill="rgba(255,255,255,1)" d="M30 1h1v1h-1zm1 0h1v1h-1zM0 2h1v1H0zm1 0h1v1H1z"/><path fill="rgba(0,0,0,1)" d="M2 2h1v1H2z"/><path fill="rgba(255,182,105,1)" d="M3 2h1v1H3zm1 0h1v1H4zm1 0h1v1H5zm1 0h1v1H6z"/><path fill="rgba(135,52,0,1)" d="M7 2h1v1H7z"/><path fill="rgba(255,182,105,1)" d="M8 2h1v1H8z"/><path fill="rgba(135,52,0,1)" d="M9 2h1v1H9z"/><path fill="rgba(255,182,105,1)" d="M10 2h1v1h-1z"/><path fill="rgba(135,52,0,1)" d="M11 2h1v1h-1zm1 0h1v1h-1z"/><path fill="rgba(255,182,105,1)" d="M13 2h1v1h-1z"/><path fill="rgba(135,52,0,1)" d="M14 2h1v1h-1zm1 0h1v1h-1zm1 0h1v1h-1zm1 0h1v1h-1z"/><path fill="rgba(255,182,105,1)" d="M18 2h1v1h-1z"/><path fill="rgba(135,52,0,1)" d="M19 2h1v1h-1zm1 0h1v1h-1z"/><path fill="rgba(255,182,105,1)" d="M21 2h1v1h-1z"/><path fill="rgba(135,52,0,1)" d="M22 2h1v1h-1z"/><path fill="rgba(255,182,105,1)" d="M23 2h1v1h-1zm1 0h1v1h-1zm1 0h1v1h-1zm1 0h1v1h-1zm1 0h1v1h-1z"/><path fill="rgba(0,0,0,1)" d="M28 2h1v1h-1z"/><path fill="rgba(255,255,255,1)" d="M29 2h1v1h-1zm1 0h1v1h-1zm1 0h1v1h-1zM0 3h1v1H0zm1 0h1v1H1zm1 0h1v1H2z"/><path fill="rgba(0,0,0,1)" d="M3 3h1v1H3z"/><path fill="rgba(255,182,105,1)" d="M4 3h1v1H4zm1 0h1v1H5zm1 0h1v1H6zm1 0h1v1H7zm1 0h1v1H8z"/><path fill="rgba(135,52,0,1)" d="M9 3h1v1H9z"/><path fill="rgba(255,182,105,1)" d="M10 3h1v1h-1z"/><path fill="rgba(135,52,0,1)" d="M11 3h1v1h-1zm1 0h1v1h-1z"/><path fill="rgba(255,182,105,1)" d="M13 3h1v1h-1z"/><path fill="rgba(135,52,0,1)" d="M14 3h1v1h-1zm1 0h1v1h-1zm1 0h1v1h-1zm1 0h1v1h-1z"/><path fill="rgba(255,182,105,1)" d="M18 3h1v1h-1z"/><path fill="rgba(135,52,0,1)" d="M19 3h1v1h-1zm1 0h1v1h-1z"/><path fill="rgba(255,182,105,1)" d="M21 3h1v1h-1zm1 0h1v1h-1zm1 0h1v1h-1zm1 0h1v1h-1zm1 0h1v1h-1zm1 0h1v1h-1z"/><path fill="rgba(0,0,0,1)" d="M27 3h1v1h-1z"/><path fill="rgba(255,255,255,1)" d="M28 3h1v1h-1zm1 0h1v1h-1zm1 0h1v1h-1zm1 0h1v1h-1zM0 4h1v1H0zm1 0h1v1H1z"/><path fill="rgba(0,0,0,1)" d="M2 4h1v1H2z"/><path fill="rgba(255,182,105,1)" d="M3 4h1v1H3zm1 0h1v1H4zm1 0h1v1H5zm1 0h1v1H6zm1 0h1v1H7zm1 0h1v1H8zm1 0h1v1H9zm1 0h1v1h-1z"/><path fill="rgba(135,52,0,1)" d="M11 4h1v1h-1zm1 0h1v1h-1z"/><path fill="rgba(255,182,105,1)" d="M13 4h1v1h-1z"/><path fill="rgba(135,52,0,1)" d="M14 4h1v1h-1zm1 0h1v1h-1zm1 0h1v1h-1zm1 0h1v1h-1z"/><path fill="rgba(255,182,105,1)" d="M18 4h1v1h-1z"/><path fill="rgba(135,52,0,1)" d="M19 4h1v1h-1zm1 0h1v1h-1z"/><path fill="rgba(255,182,105,1)" d="M21 4h1v1h-1zm1 0h1v1h-1zm1 0h1v1h-1zm1 0h1v1h-1zm1 0h1v1h-1zm1 0h1v1h-1zm1 0h1v1h-1z"/><path fill="rgba(0,0,0,1)" d="M28 4h1v1h-1zm1 0h1v1h-1z"/><path fill="rgba(255,255,255,1)" d="M30 4h1v1h-1zm1 0h1v1h-1zM0 5h1v1H0z"/><path fill="rgba(0,0,0,1)" d="M1 5h1v1H1z"/><path fill="rgba(255,182,105,1)" d="M2 5h1v1H2zm1 0h1v1H3zm1 0h1v1H4zm1 0h1v1H5zm1 0h1v1H6zm1 0h1v1H7zm1 0h1v1H8zm1 0h1v1H9zm1 0h1v1h-1zm1 0h1v1h-1z"/><path fill="rgba(135,52,0,1)" d="M12 5h1v1h-1z"/><path fill="rgba(255,182,105,1)" d="M13 5h1v1h-1zm1 0h1v1h-1z"/><path fill="rgba(135,52,0,1)" d="M15 5h1v1h-1zm1 0h1v1h-1z"/><path fill="rgba(255,182,105,1)" d="M17 5h1v1h-1zm1 0h1v1h-1z"/><path fill="rgba(135,52,0,1)" d="M19 5h1v1h-1zm1 0h1v1h-1z"/><path fill="rgba(255,182,105,1)" d="M21 5h1v1h-1zm1 0h1v1h-1zm1 0h1v1h-1zm1 0h1v1h-1zm1 0h1v1h-1zm1 0h1v1h-1zm1 0h1v1h-1zm1 0h1v1h-1zm1 0h1v1h-1z"/><path fill="rgba(0,0,0,1)" d="M30 5h1v1h-1z"/><path fill="rgba(255,255,255,1)" d="M31 5h1v1h-1z"/><path fill="rgba(0,0,0,1)" d="M0 6h1v1H0z"/><path fill="rgba(255,182,105,1)" d="M1 6h1v1H1zm1 0h1v1H2zm1 0h1v1H3zm1 0h1v1H4zm1 0h1v1H5zm1 0h1v1H6zm1 0h1v1H7zm1 0h1v1H8zm1 0h1v1H9zm1 0h1v1h-1zm1 0h1v1h-1z"/><path fill="rgba(135,52,0,1)" d="M12 6h1v1h-1z"/><path fill="rgba(255,182,105,1)" d="M13 6h1v1h-1zm1 0h1v1h-1z"/><path fill="rgba(135,52,0,1)" d="M15 6h1v1h-1zm1 0h1v1h-1z"/><path fill="rgba(255,182,105,1)" d="M17 6h1v1h-1zm1 0h1v1h-1z"/><path fill="rgba(135,52,0,1)" d="M19 6h1v1h-1z"/><path fill="rgba(255,182,105,1)" d="M20 6h1v1h-1zm1 0h1v1h-1zm1 0h1v1h-1zm1 0h1v1h-1zm1 0h1v1h-1zm1 0h1v1h-1zm1 0h1v1h-1zm1 0h1v1h-1zm1 0h1v1h-1zm1 0h1v1h-1zm1 0h1v1h-1z"/><path fill="rgba(0,0,0,1)" d="M31 6h1v1h-1z"/><path fill="rgba(255,182,105,1)" d="M0 7h1v1H0zm1 0h1v1H1zm1 0h1v1H2zm1 0h1v1H3zm1 0h1v1H4zm1 0h1v1H5zm1 0h1v1H6zm1 0h1v1H7zm1 0h1v1H8zm1 0h1v1H9zm1 0h1v1h-1zm1 0h1v1h-1zm1 0h1v1h-1z"/><path fill="rgba(135,52,0,1)" d="M13 7h1v1h-1z"/><path fill="rgba(255,182,105,1)" d="M14 7h1v1h-1z"/><path fill="rgba(135,52,0,1)" d="M15 7h1v1h-1zm1 0h1v1h-1z"/><path fill="rgba(255,182,105,1)" d="M17 7h1v1h-1z"/><path fill="rgba(135,52,0,1)" d="M18 7h1v1h-1z"/><path fill="rgba(255,182,105,1)" d="M19 7h1v1h-1zm1 0h1v1h-1zm1 0h1v1h-1zm1 0h1v1h-1zm1 0h1v1h-1zm1 0h1v1h-1zm1 0h1v1h-1zm1 0h1v1h-1zm1 0h1v1h-1zm1 0h1v1h-1zm1 0h1v1h-1zm1 0h1v1h-1zm1 0h1v1h-1zM0 8h1v1H0zm1 0h1v1H1zm1 0h1v1H2zm1 0h1v1H3zm1 0h1v1H4zm1 0h1v1H5zm1 0h1v1H6zm1 0h1v1H7zm1 0h1v1H8zm1 0h1v1H9zm1 0h1v1h-1zm1 0h1v1h-1zm1 0h1v1h-1zm1 0h1v1h-1zm1 0h1v1h-1zm1 0h1v1h-1zm1 0h1v1h-1zm1 0h1v1h-1zm1 0h1v1h-1zm1 0h1v1h-1zm1 0h1v1h-1zm1 0h1v1h-1zm1 0h1v1h-1zm1 0h1v1h-1zm1 0h1v1h-1zm1 0h1v1h-1zm1 0h1v1h-1zm1 0h1v1h-1zm1 0h1v1h-1zm1 0h1v1h-1zm1 0h1v1h-1zm1 0h1v1h-1zM0 9h1v1H0zm1 0h1v1H1zm1 0h1v1H2zm1 0h1v1H3zm1 0h1v1H4zm1 0h1v1H5zm1 0h1v1H6zm1 0h1v1H7zm1 0h1v1H8zm1 0h1v1H9zm1 0h1v1h-1zm1 0h1v1h-1zm1 0h1v1h-1zm1 0h1v1h-1zm1 0h1v1h-1zm1 0h1v1h-1zm1 0h1v1h-1zm1 0h1v1h-1zm1 0h1v1h-1zm1 0h1v1h-1zm1 0h1v1h-1zm1 0h1v1h-1zm1 0h1v1h-1zm1 0h1v1h-1zm1 0h1v1h-1zm1 0h1v1h-1zm1 0h1v1h-1zm1 0h1v1h-1zm1 0h1v1h-1zm1 0h1v1h-1zm1 0h1v1h-1zm1 0h1v1h-1zM0 10h1v1H0zm1 0h1v1H1z"/><path fill="rgba(135,52,0,1)" d="M2 10h1v1H2z"/><path fill="rgba(255,182,105,1)" d="M3 10h1v1H3zm1 0h1v1H4zm1 0h1v1H5zm1 0h1v1H6zm1 0h1v1H7zm1 0h1v1H8zm1 0h1v1H9zm1 0h1v1h-1zm1 0h1v1h-1zm1 0h1v1h-1z"/><path fill="rgba(255,255,255,1)" d="M13 10h1v1h-1zm1 0h1v1h-1zm1 0h1v1h-1zm1 0h1v1h-1z"/><path fill="rgba(255,182,105,1)" d="M17 10h1v1h-1zm1 0h1v1h-1zm1 0h1v1h-1zm1 0h1v1h-1zm1 0h1v1h-1zm1 0h1v1h-1zm1 0h1v1h-1zm1 0h1v1h-1zm1 0h1v1h-1zm1 0h1v1h-1zm1 0h1v1h-1zm1 0h1v1h-1z"/><path fill="rgba(135,52,0,1)" d="M29 10h1v1h-1zm1 0h1v1h-1z"/><path fill="rgba(255,182,105,1)" d="M31 10h1v1h-1zM0 11h1v1H0z"/><path fill="rgba(135,52,0,1)" d="M1 11h1v1H1zm1 0h1v1H2zm1 0h1v1H3z"/><path fill="rgba(255,182,105,1)" d="M4 11h1v1H4zm1 0h1v1H5zm1 0h1v1H6zm1 0h1v1H7zm1 0h1v1H8zm1 0h1v1H9zm1 0h1v1h-1zm1 0h1v1h-1z"/><path fill="rgba(255,255,255,1)" d="M12 11h1v1h-1zm1 0h1v1h-1zm1 0h1v1h-1zm1 0h1v1h-1zm1 0h1v1h-1zm1 0h1v1h-1zm1 0h1v1h-1z"/><path fill="rgba(255,182,105,1)" d="M19 11h1v1h-1zm1 0h1v1h-1zm1 0h1v1h-1zm1 0h1v1h-1zm1 0h1v1h-1zm1 0h1v1h-1zm1 0h1v1h-1zm1 0h1v1h-1zm1 0h1v1h-1zm1 0h1v1h-1zm1 0h1v1h-1z"/><path fill="rgba(135,52,0,1)" d="M30 11h1v1h-1zm1 0h1v1h-1zM0 12h1v1H0zm1 0h1v1H1zm1 0h1v1H2z"/><path fill="rgba(255,182,105,1)" d="M3 12h1v1H3zm1 0h1v1H4z"/><path fill="rgba(0,0,0,1)" d="M5 12h1v1H5zm1 0h1v1H6zm1 0h1v1H7zm1 0h1v1H8zm1 0h1v1H9z"/><path fill="rgba(255,182,105,1)" d="M10 12h1v1h-1z"/><path fill="rgba(255,255,255,1)" d="M11 12h1v1h-1zm1 0h1v1h-1zm1 0h1v1h-1zm1 0h1v1h-1zm1 0h1v1h-1zm1 0h1v1h-1zm1 0h1v1h-1zm1 0h1v1h-1zm1 0h1v1h-1z"/><path fill="rgba(255,182,105,1)" d="M20 12h1v1h-1z"/><path fill="rgba(0,0,0,1)" d="M21 12h1v1h-1zm1 0h1v1h-1zm1 0h1v1h-1zm1 0h1v1h-1zm1 0h1v1h-1zm1 0h1v1h-1z"/><path fill="rgba(255,182,105,1)" d="M27 12h1v1h-1zm1 0h1v1h-1zm1 0h1v1h-1zm1 0h1v1h-1z"/><path fill="rgba(135,52,0,1)" d="M31 12h1v1h-1zM0 13h1v1H0zm1 0h1v1H1z"/><path fill="rgba(255,182,105,1)" d="M2 13h1v1H2zm1 0h1v1H3z"/><path fill="rgba(0,0,0,1)" d="M4 13h1v1H4zm1 0h1v1H5zm1 0h1v1H6zm1 0h1v1H7zm1 0h1v1H8zm1 0h1v1H9zm1 0h1v1h-1z"/><path fill="rgba(255,255,255,1)" d="M11 13h1v1h-1zm1 0h1v1h-1zm1 0h1v1h-1zm1 0h1v1h-1zm1 0h1v1h-1zm1 0h1v1h-1zm1 0h1v1h-1zm1 0h1v1h-1zm1 0h1v1h-1z"/><path fill="rgba(0,0,0,1)" d="M20 13h1v1h-1zm1 0h1v1h-1zm1 0h1v1h-1zm1 0h1v1h-1zm1 0h1v1h-1zm1 0h1v1h-1zm1 0h1v1h-1zm1 0h1v1h-1z"/><path fill="rgba(255,182,105,1)" d="M28 13h1v1h-1zm1 0h1v1h-1zm1 0h1v1h-1z"/><path fill="rgba(135,52,0,1)" d="M31 13h1v1h-1zM0 14h1v1H0z"/><path fill="rgba(255,182,105,1)" d="M1 14h1v1H1zm1 0h1v1H2zm1 0h1v1H3zm1 0h1v1H4zm1 0h1v1H5zm1 0h1v1H6zm1 0h1v1H7zm1 0h1v1H8z"/><path fill="rgba(255,255,255,1)" d="M9 14h1v1H9zm1 0h1v1h-1z"/><path fill="rgba(0,0,0,1)" d="M11 14h1v1h-1z"/><path fill="rgba(255,255,255,1)" d="M12 14h1v1h-1zm1 0h1v1h-1zm1 0h1v1h-1zm1 0h1v1h-1zm1 0h1v1h-1zm1 0h1v1h-1zm1 0h1v1h-1z"/><path fill="rgba(0,0,0,1)" d="M19 14h1v1h-1z"/><path fill="rgba(255,255,255,1)" d="M20 14h1v1h-1z"/><path fill="rgba(255,182,105,1)" d="M21 14h1v1h-1zm1 0h1v1h-1zm1 0h1v1h-1zm1 0h1v1h-1zm1 0h1v1h-1zm1 0h1v1h-1zm1 0h1v1h-1zm1 0h1v1h-1zm1 0h1v1h-1zm1 0h1v1h-1z"/><path fill="rgba(135,52,0,1)" d="M31 14h1v1h-1zM0 15h1v1H0zm1 0h1v1H1z"/><path fill="rgba(255,182,105,1)" d="M2 15h1v1H2zm1 0h1v1H3zm1 0h1v1H4zm1 0h1v1H5zm1 0h1v1H6zm1 0h1v1H7z"/><path fill="rgba(255,255,255,1)" d="M8 15h1v1H8zm1 0h1v1H9zm1 0h1v1h-1zm1 0h1v1h-1zm1 0h1v1h-1zm1 0h1v1h-1zm1 0h1v1h-1zm1 0h1v1h-1zm1 0h1v1h-1zm1 0h1v1h-1zm1 0h1v1h-1zm1 0h1v1h-1zm1 0h1v1h-1zm1 0h1v1h-1zm1 0h1v1h-1z"/><path fill="rgba(255,182,105,1)" d="M23 15h1v1h-1zm1 0h1v1h-1zm1 0h1v1h-1zm1 0h1v1h-1zm1 0h1v1h-1zm1 0h1v1h-1zm1 0h1v1h-1z"/><path fill="rgba(135,52,0,1)" d="M30 15h1v1h-1zm1 0h1v1h-1z"/><path fill="rgba(255,182,105,1)" d="M0 16h1v1H0z"/><path fill="rgba(135,52,0,1)" d="M1 16h1v1H1zm1 0h1v1H2z"/><path fill="rgba(255,182,105,1)" d="M3 16h1v1H3z"/><path fill="rgba(255,255,255,1)" d="M4 16h1v1H4z"/><path fill="rgba(255,182,105,1)" d="M5 16h1v1H5zm1 0h1v1H6z"/><path fill="rgba(255,255,255,1)" d="M7 16h1v1H7zm1 0h1v1H8zm1 0h1v1H9zm1 0h1v1h-1zm1 0h1v1h-1zm1 0h1v1h-1z"/><path fill="rgba(135,52,0,1)" d="M13 16h1v1h-1z"/><path fill="rgba(255,255,255,1)" d="M14 16h1v1h-1zm1 0h1v1h-1zm1 0h1v1h-1z"/><path fill="rgba(135,52,0,1)" d="M17 16h1v1h-1z"/><path fill="rgba(255,255,255,1)" d="M18 16h1v1h-1zm1 0h1v1h-1zm1 0h1v1h-1zm1 0h1v1h-1zm1 0h1v1h-1zm1 0h1v1h-1z"/><path fill="rgba(255,182,105,1)" d="M24 16h1v1h-1z"/><path fill="rgba(255,255,255,1)" d="M25 16h1v1h-1z"/><path fill="rgba(255,182,105,1)" d="M26 16h1v1h-1zm1 0h1v1h-1zm1 0h1v1h-1z"/><path fill="rgba(135,52,0,1)" d="M29 16h1v1h-1zm1 0h1v1h-1z"/><path fill="rgba(255,182,105,1)" d="M31 16h1v1h-1zM0 17h1v1H0zm1 0h1v1H1zm1 0h1v1H2zm1 0h1v1H3zm1 0h1v1H4zm1 0h1v1H5z"/><path fill="rgba(255,255,255,1)" d="M6 17h1v1H6zm1 0h1v1H7z"/><path fill="rgba(255,182,105,1)" d="M8 17h1v1H8zm1 0h1v1H9zm1 0h1v1h-1z"/><path fill="rgba(255,255,255,1)" d="M11 17h1v1h-1zm1 0h1v1h-1zm1 0h1v1h-1z"/><path fill="rgba(135,52,0,1)" d="M14 17h1v1h-1zm1 0h1v1h-1zm1 0h1v1h-1z"/><path fill="rgba(255,255,255,1)" d="M17 17h1v1h-1zm1 0h1v1h-1z"/><path fill="rgba(255,182,105,1)" d="M19 17h1v1h-1zm1 0h1v1h-1zm1 0h1v1h-1z"/><path fill="rgba(255,255,255,1)" d="M22 17h1v1h-1zm1 0h1v1h-1zm1 0h1v1h-1z"/><path fill="rgba(255,182,105,1)" d="M25 17h1v1h-1zm1 0h1v1h-1zm1 0h1v1h-1zm1 0h1v1h-1zm1 0h1v1h-1zm1 0h1v1h-1zm1 0h1v1h-1zM0 18h1v1H0z"/><path fill="rgba(255,255,255,1)" d="M1 18h1v1H1zm1 0h1v1H2zm1 0h1v1H3z"/><path fill="rgba(255,182,105,1)" d="M4 18h1v1H4zm1 0h1v1H5z"/><path fill="rgba(255,255,255,1)" d="M6 18h1v1H6zm1 0h1v1H7z"/><path fill="rgba(255,182,105,1)" d="M8 18h1v1H8zm1 0h1v1H9zm1 0h1v1h-1zm1 0h1v1h-1z"/><path fill="rgba(255,255,255,1)" d="M12 18h1v1h-1zm1 0h1v1h-1zm1 0h1v1h-1z"/><path fill="rgba(135,52,0,1)" d="M15 18h1v1h-1z"/><path fill="rgba(255,255,255,1)" d="M16 18h1v1h-1zm1 0h1v1h-1z"/><path fill="rgba(255,182,105,1)" d="M18 18h1v1h-1zm1 0h1v1h-1zm1 0h1v1h-1zm1 0h1v1h-1zm1 0h1v1h-1z"/><path fill="rgba(255,255,255,1)" d="M23 18h1v1h-1zm1 0h1v1h-1z"/><path fill="rgba(255,182,105,1)" d="M25 18h1v1h-1zm1 0h1v1h-1zm1 0h1v1h-1z"/><path fill="rgba(255,255,255,1)" d="M28 18h1v1h-1zm1 0h1v1h-1z"/><path fill="rgba(255,182,105,1)" d="M30 18h1v1h-1zm1 0h1v1h-1zM0 19h1v1H0zm1 0h1v1H1zm1 0h1v1H2zm1 0h1v1H3zm1 0h1v1H4z"/><path fill="rgba(255,255,255,1)" d="M5 19h1v1H5zm1 0h1v1H6z"/><path fill="rgba(255,182,105,1)" d="M7 19h1v1H7zm1 0h1v1H8zm1 0h1v1H9zm1 0h1v1h-1zm1 0h1v1h-1zm1 0h1v1h-1z"/><path fill="rgba(255,255,255,1)" d="M13 19h1v1h-1zm1 0h1v1h-1zm1 0h1v1h-1zm1 0h1v1h-1zm1 0h1v1h-1z"/><path fill="rgba(255,182,105,1)" d="M18 19h1v1h-1zm1 0h1v1h-1zm1 0h1v1h-1zm1 0h1v1h-1zm1 0h1v1h-1z"/><path fill="rgba(255,255,255,1)" d="M23 19h1v1h-1zm1 0h1v1h-1zm1 0h1v1h-1z"/><path fill="rgba(255,182,105,1)" d="M26 19h1v1h-1zm1 0h1v1h-1zm1 0h1v1h-1zm1 0h1v1h-1zm1 0h1v1h-1zm1 0h1v1h-1zM0 20h1v1H0zm1 0h1v1H1z"/><path fill="rgba(255,255,255,1)" d="M2 20h1v1H2z"/><path fill="rgba(255,182,105,1)" d="M3 20h1v1H3zm1 0h1v1H4z"/><path fill="rgba(255,255,255,1)" d="M5 20h1v1H5zm1 0h1v1H6zm1 0h1v1H7zm1 0h1v1H8zm1 0h1v1H9zm1 0h1v1h-1zm1 0h1v1h-1zm1 0h1v1h-1zm1 0h1v1h-1zm1 0h1v1h-1z"/><path fill="rgba(135,52,0,1)" d="M15 20h1v1h-1z"/><path fill="rgba(255,255,255,1)" d="M16 20h1v1h-1zm1 0h1v1h-1zm1 0h1v1h-1zm1 0h1v1h-1zm1 0h1v1h-1zm1 0h1v1h-1zm1 0h1v1h-1zm1 0h1v1h-1zm1 0h1v1h-1zm1 0h1v1h-1z"/><path fill="rgba(255,182,105,1)" d="M26 20h1v1h-1zm1 0h1v1h-1zm1 0h1v1h-1zm1 0h1v1h-1zm1 0h1v1h-1zm1 0h1v1h-1zM0 21h1v1H0z"/><path fill="rgba(255,255,255,1)" d="M1 21h1v1H1z"/><path fill="rgba(255,182,105,1)" d="M2 21h1v1H2zm1 0h1v1H3zm1 0h1v1H4z"/><path fill="rgba(255,255,255,1)" d="M5 21h1v1H5zm1 0h1v1H6zm1 0h1v1H7zm1 0h1v1H8z"/><path fill="rgba(135,52,0,1)" d="M9 21h1v1H9zm1 0h1v1h-1zm1 0h1v1h-1zm1 0h1v1h-1zm1 0h1v1h-1zm1 0h1v1h-1zm1 0h1v1h-1zm1 0h1v1h-1zm1 0h1v1h-1zm1 0h1v1h-1zm1 0h1v1h-1zm1 0h1v1h-1zm1 0h1v1h-1z"/><path fill="rgba(255,255,255,1)" d="M22 21h1v1h-1zm1 0h1v1h-1zm1 0h1v1h-1z"/><path fill="rgba(255,182,105,1)" d="M25 21h1v1h-1zm1 0h1v1h-1z"/><path fill="rgba(255,255,255,1)" d="M27 21h1v1h-1z"/><path fill="rgba(255,182,105,1)" d="M28 21h1v1h-1zm1 0h1v1h-1zm1 0h1v1h-1zm1 0h1v1h-1zM0 22h1v1H0zm1 0h1v1H1zm1 0h1v1H2zm1 0h1v1H3zm1 0h1v1H4zm1 0h1v1H5z"/><path fill="rgba(255,255,255,1)" d="M6 22h1v1H6zm1 0h1v1H7zm1 0h1v1H8zm1 0h1v1H9z"/><path fill="rgba(135,52,0,1)" d="M10 22h1v1h-1zm1 0h1v1h-1zm1 0h1v1h-1zm1 0h1v1h-1zm1 0h1v1h-1zm1 0h1v1h-1zm1 0h1v1h-1zm1 0h1v1h-1zm1 0h1v1h-1zm1 0h1v1h-1zm1 0h1v1h-1z"/><path fill="rgba(255,255,255,1)" d="M21 22h1v1h-1zm1 0h1v1h-1zm1 0h1v1h-1z"/><path fill="rgba(255,182,105,1)" d="M24 22h1v1h-1zm1 0h1v1h-1z"/><path fill="rgba(255,190,120,1)" d="M26 22h1v1h-1z"/><path fill="rgba(255,182,105,1)" d="M27 22h1v1h-1z"/><path fill="rgba(255,255,255,1)" d="M28 22h1v1h-1z"/><path fill="rgba(255,182,105,1)" d="M29 22h1v1h-1zm1 0h1v1h-1zm1 0h1v1h-1zM0 23h1v1H0zm1 0h1v1H1zm1 0h1v1H2zm1 0h1v1H3zm1 0h1v1H4zm1 0h1v1H5zm1 0h1v1H6z"/><path fill="rgba(255,255,255,1)" d="M7 23h1v1H7zm1 0h1v1H8zm1 0h1v1H9zm1 0h1v1h-1z"/><path fill="rgba(135,52,0,1)" d="M11 23h1v1h-1zm1 0h1v1h-1zm1 0h1v1h-1zm1 0h1v1h-1zm1 0h1v1h-1zm1 0h1v1h-1zm1 0h1v1h-1zm1 0h1v1h-1zm1 0h1v1h-1z"/><path fill="rgba(255,255,255,1)" d="M20 23h1v1h-1zm1 0h1v1h-1zm1 0h1v1h-1z"/><path fill="rgba(255,182,105,1)" d="M23 23h1v1h-1zm1 0h1v1h-1zm1 0h1v1h-1zm1 0h1v1h-1zm1 0h1v1h-1zm1 0h1v1h-1zm1 0h1v1h-1zm1 0h1v1h-1zm1 0h1v1h-1z"/><path fill="rgba(135,52,0,1)" d="M0 24h1v1H0zm1 0h1v1H1z"/><path fill="rgba(255,182,105,1)" d="M2 24h1v1H2zm1 0h1v1H3zm1 0h1v1H4zm1 0h1v1H5zm1 0h1v1H6zm1 0h1v1H7z"/><path fill="rgba(255,255,255,1)" d="M8 24h1v1H8zm1 0h1v1H9zm1 0h1v1h-1zm1 0h1v1h-1zm1 0h1v1h-1z"/><path fill="rgba(135,52,0,1)" d="M13 24h1v1h-1zm1 0h1v1h-1zm1 0h1v1h-1zm1 0h1v1h-1zm1 0h1v1h-1zm1 0h1v1h-1z"/><path fill="rgba(255,255,255,1)" d="M19 24h1v1h-1zm1 0h1v1h-1zm1 0h1v1h-1z"/><path fill="rgba(255,182,105,1)" d="M22 24h1v1h-1zm1 0h1v1h-1zm1 0h1v1h-1zm1 0h1v1h-1zm1 0h1v1h-1zm1 0h1v1h-1zm1 0h1v1h-1zm1 0h1v1h-1zm1 0h1v1h-1z"/><path fill="rgba(135,52,0,1)" d="M31 24h1v1h-1zM0 25h1v1H0zm1 0h1v1H1z"/><path fill="rgba(255,182,105,1)" d="M2 25h1v1H2zm1 0h1v1H3zm1 0h1v1H4zm1 0h1v1H5zm1 0h1v1H6zm1 0h1v1H7zm1 0h1v1H8zm1 0h1v1H9z"/><path fill="rgba(255,255,255,1)" d="M10 25h1v1h-1zm1 0h1v1h-1zm1 0h1v1h-1zm1 0h1v1h-1zm1 0h1v1h-1zm1 0h1v1h-1zm1 0h1v1h-1zm1 0h1v1h-1zm1 0h1v1h-1zm1 0h1v1h-1zm1 0h1v1h-1zm1 0h1v1h-1z"/><path fill="rgba(255,182,105,1)" d="M22 25h1v1h-1zm1 0h1v1h-1zm1 0h1v1h-1zm1 0h1v1h-1zm1 0h1v1h-1zm1 0h1v1h-1zm1 0h1v1h-1z"/><path fill="rgba(0,0,0,1)" d="M29 25h1v1h-1z"/><path fill="rgba(135,52,0,1)" d="M30 25h1v1h-1zm1 0h1v1h-1zM0 26h1v1H0z"/><path fill="rgba(0,0,0,1)" d="M1 26h1v1H1zm1 0h1v1H2zm1 0h1v1H3zm1 0h1v1H4zm1 0h1v1H5zm1 0h1v1H6zm1 0h1v1H7zm1 0h1v1H8z"/><path fill="rgba(255,182,105,1)" d="M9 26h1v1H9zm1 0h1v1h-1z"/><path fill="rgba(255,255,255,1)" d="M11 26h1v1h-1zm1 0h1v1h-1zm1 0h1v1h-1zm1 0h1v1h-1zm1 0h1v1h-1zm1 0h1v1h-1zm1 0h1v1h-1zm1 0h1v1h-1zm1 0h1v1h-1zm1 0h1v1h-1z"/><path fill="rgba(255,182,105,1)" d="M21 26h1v1h-1zm1 0h1v1h-1z"/><path fill="rgba(0,0,0,1)" d="M23 26h1v1h-1zm1 0h1v1h-1zm1 0h1v1h-1zm1 0h1v1h-1zm1 0h1v1h-1zm1 0h1v1h-1zm1 0h1v1h-1zm1 0h1v1h-1z"/><path fill="rgba(135,52,0,1)" d="M31 26h1v1h-1z"/><path fill="rgba(0,0,0,1)" d="M0 27h1v1H0z"/><path fill="rgba(255,182,105,1)" d="M1 27h1v1H1zm1 0h1v1H2zm1 0h1v1H3zm1 0h1v1H4z"/><path fill="rgba(255,255,255,1)" d="M5 27h1v1H5zm1 0h1v1H6zm1 0h1v1H7zm1 0h1v1H8z"/><path fill="rgba(0,0,0,1)" d="M9 27h1v1H9z"/><path fill="rgba(255,182,105,1)" d="M10 27h1v1h-1zm1 0h1v1h-1zm1 0h1v1h-1z"/><path fill="rgba(255,255,255,1)" d="M13 27h1v1h-1zm1 0h1v1h-1zm1 0h1v1h-1zm1 0h1v1h-1zm1 0h1v1h-1zm1 0h1v1h-1z"/><path fill="rgba(255,182,105,1)" d="M19 27h1v1h-1zm1 0h1v1h-1zm1 0h1v1h-1z"/><path fill="rgba(0,0,0,1)" d="M22 27h1v1h-1z"/><path fill="rgba(255,255,255,1)" d="M23 27h1v1h-1zm1 0h1v1h-1zm1 0h1v1h-1zm1 0h1v1h-1zm1 0h1v1h-1zm1 0h1v1h-1z"/><path fill="rgba(255,182,105,1)" d="M29 27h1v1h-1zm1 0h1v1h-1z"/><path fill="rgba(0,0,0,1)" d="M31 27h1v1h-1zM0 28h1v1H0z"/><path fill="rgba(255,182,105,1)" d="M1 28h1v1H1zm1 0h1v1H2z"/><path fill="rgba(255,255,255,1)" d="M3 28h1v1H3zm1 0h1v1H4zm1 0h1v1H5zm1 0h1v1H6zm1 0h1v1H7zm1 0h1v1H8z"/><path fill="rgba(0,0,0,1)" d="M9 28h1v1H9z"/><path fill="rgba(255,182,105,1)" d="M10 28h1v1h-1zm1 0h1v1h-1zm1 0h1v1h-1zm1 0h1v1h-1zm1 0h1v1h-1zm1 0h1v1h-1zm1 0h1v1h-1zm1 0h1v1h-1zm1 0h1v1h-1zm1 0h1v1h-1zm1 0h1v1h-1z"/><path fill="rgba(0,0,0,1)" d="M21 28h1v1h-1z"/><path fill="rgba(255,255,255,1)" d="M22 28h1v1h-1zm1 0h1v1h-1zm1 0h1v1h-1zm1 0h1v1h-1zm1 0h1v1h-1zm1 0h1v1h-1zm1 0h1v1h-1z"/><path fill="rgba(255,182,105,1)" d="M29 28h1v1h-1zm1 0h1v1h-1z"/><path fill="rgba(0,0,0,1)" d="M31 28h1v1h-1z"/><path fill="rgba(255,182,105,1)" d="M0 29h1v1H0zm1 0h1v1H1z"/><path fill="rgba(255,255,255,1)" d="M2 29h1v1H2zm1 0h1v1H3zm1 0h1v1H4zm1 0h1v1H5zm1 0h1v1H6z"/><path fill="rgba(135,52,0,1)" d="M7 29h1v1H7z"/><path fill="rgba(255,255,255,1)" d="M8 29h1v1H8zm1 0h1v1H9z"/><path fill="rgba(0,0,0,1)" d="M10 29h1v1h-1z"/><path fill="rgba(255,182,105,1)" d="M11 29h1v1h-1zm1 0h1v1h-1zm1 0h1v1h-1zm1 0h1v1h-1zm1 0h1v1h-1zm1 0h1v1h-1zm1 0h1v1h-1zm1 0h1v1h-1zm1 0h1v1h-1z"/><path fill="rgba(0,0,0,1)" d="M20 29h1v1h-1z"/><path fill="rgba(255,255,255,1)" d="M21 29h1v1h-1zm1 0h1v1h-1zm1 0h1v1h-1z"/><path fill="rgba(135,52,0,1)" d="M24 29h1v1h-1z"/><path fill="rgba(255,255,255,1)" d="M25 29h1v1h-1zm1 0h1v1h-1zm1 0h1v1h-1zm1 0h1v1h-1zm1 0h1v1h-1z"/><path fill="rgba(255,182,105,1)" d="M30 29h1v1h-1z"/><path fill="rgba(0,0,0,1)" d="M31 29h1v1h-1z"/><path fill="rgba(255,182,105,1)" d="M0 30h1v1H0zm1 0h1v1H1z"/><path fill="rgba(255,255,255,1)" d="M2 30h1v1H2zm1 0h1v1H3zm1 0h1v1H4z"/><path fill="rgba(135,52,0,1)" d="M5 30h1v1H5z"/><path fill="rgba(255,255,255,1)" d="M6 30h1v1H6zm1 0h1v1H7z"/><path fill="rgba(135,52,0,1)" d="M8 30h1v1H8z"/><path fill="rgba(255,255,255,1)" d="M9 30h1v1H9z"/><path fill="rgba(0,0,0,1)" d="M10 30h1v1h-1z"/><path fill="rgba(135,52,0,1)" d="M11 30h1v1h-1zm1 0h1v1h-1zm1 0h1v1h-1zm1 0h1v1h-1zm1 0h1v1h-1zm1 0h1v1h-1zm1 0h1v1h-1zm1 0h1v1h-1zm1 0h1v1h-1z"/><path fill="rgba(0,0,0,1)" d="M20 30h1v1h-1z"/><path fill="rgba(255,255,255,1)" d="M21 30h1v1h-1zm1 0h1v1h-1z"/><path fill="rgba(135,52,0,1)" d="M23 30h1v1h-1z"/><path fill="rgba(255,255,255,1)" d="M24 30h1v1h-1zm1 0h1v1h-1z"/><path fill="rgba(135,52,0,1)" d="M26 30h1v1h-1z"/><path fill="rgba(255,255,255,1)" d="M27 30h1v1h-1zm1 0h1v1h-1zm1 0h1v1h-1z"/><path fill="rgba(255,182,105,1)" d="M30 30h1v1h-1z"/><path fill="rgba(135,52,0,1)" d="M31 30h1v1h-1z"/><path fill="rgba(255,182,105,1)" d="M0 31h1v1H0z"/><path fill="rgba(255,255,255,1)" d="M1 31h1v1H1zm1 0h1v1H2zm1 0h1v1H3zm1 0h1v1H4z"/><path fill="rgba(135,52,0,1)" d="M5 31h1v1H5z"/><path fill="rgba(255,255,255,1)" d="M6 31h1v1H6zm1 0h1v1H7z"/><path fill="rgba(135,52,0,1)" d="M8 31h1v1H8z"/><path fill="rgba(255,255,255,1)" d="M9 31h1v1H9z"/><path fill="rgba(0,0,0,1)" d="M10 31h1v1h-1z"/><path fill="rgba(135,52,0,1)" d="M11 31h1v1h-1zm1 0h1v1h-1zm1 0h1v1h-1zm1 0h1v1h-1zm1 0h1v1h-1zm1 0h1v1h-1zm1 0h1v1h-1zm1 0h1v1h-1zm1 0h1v1h-1z"/><path fill="rgba(0,0,0,1)" d="M20 31h1v1h-1z"/><path fill="rgba(255,255,255,1)" d="M21 31h1v1h-1zm1 0h1v1h-1z"/><path fill="rgba(135,52,0,1)" d="M23 31h1v1h-1z"/><path fill="rgba(255,255,255,1)" d="M24 31h1v1h-1zm1 0h1v1h-1z"/><path fill="rgba(135,52,0,1)" d="M26 31h1v1h-1z"/><path fill="rgba(255,255,255,1)" d="M27 31h1v1h-1zm1 0h1v1h-1z"/><path fill="rgba(135,52,0,1)" d="M29 31h1v1h-1zm1 0h1v1h-1zm1 0h1v1h-1z"/></svg>