<svg xmlns="http://www.w3.org/2000/svg" width="195" height="156" viewBox="0 0 65 52"><g fill="none" fill-rule="evenodd"><g fill-rule="nonzero"><path fill="#FFEAE3" d="M5 17h1v1H5zm1 0h1v1H6zm1 0h1v1H7zm-3 1h1v1H4z"/><path fill="#A35A44" d="M5 18h1v1H5zm1 0h1v1H6zm1 0h1v1H7z"/><path fill="#FFEAE3" d="M8 18h1v1H8z"/><path fill="#C69E93" d="M2 19h1v1H2zm1 0h1v1H3z"/><path fill="#FFEAE3" d="M4 19h1v1H4zm1 0h1v1H5zm1 0h1v1H6zm1 0h1v1H7zm1 0h1v1H8z"/><path fill="#C69E93" d="M2 20h1v1H2z"/><path fill="#FFEAE3" d="M4 20h1v1H4zm1 0h1v1H5zm1 0h1v1H6zm1 0h1v1H7zm1 0h1v1H8z"/><path fill="#C69E93" d="M3 21h1v1H3z"/><path fill="#FFEAE3" d="M4 21h1v1H4zm1 0h1v1H5zm1 0h1v1H6zm1 0h1v1H7zm1 0h1v1H8zm-3 1h1v1H5zm1 0h1v1H6zm1 0h1v1H7z"/></g><path d="M0 13h13v13H0z"/><g fill-rule="nonzero"><path fill="#FFEAE3" d="M5 4h1v1H5zm1 0h1v1H6zm1 0h1v1H7zM4 5h1v1H4z"/><path fill="#A35A44" d="M5 5h1v1H5zm1 0h1v1H6zm1 0h1v1H7z"/><path fill="#FFEAE3" d="M8 5h1v1H8z"/><path fill="#C69E93" d="M2 6h1v1H2zm1 0h1v1H3z"/><path fill="#FFEAE3" d="M4 6h1v1H4zm1 0h1v1H5zm1 0h1v1H6zm1 0h1v1H7zm1 0h1v1H8z"/><path fill="#C69E93" d="M2 7h1v1H2z"/><path fill="#FFEAE3" d="M4 7h1v1H4zm1 0h1v1H5zm1 0h1v1H6zm1 0h1v1H7zm1 0h1v1H8z"/><path fill="#C69E93" d="M3 8h1v1H3z"/><path fill="#FFEAE3" d="M4 8h1v1H4zm1 0h1v1H5zm1 0h1v1H6zm1 0h1v1H7zm1 0h1v1H8zM5 9h1v1H5zm1 0h1v1H6zm1 0h1v1H7z"/></g><path d="M0 0h13v13H0z"/><g fill-rule="nonzero"><path fill="#FFEAE3" d="M20 17h1v1h-1z"/><path fill="#C69E93" d="M17 18h1v1h-1zm1 0h1v1h-1z"/><path fill="#FFEAE3" d="M19 18h1v1h-1z"/><path fill="#A35A44" d="M20 18h1v1h-1z"/><path fill="#FFEAE3" d="M21 18h1v1h-1z"/><path fill="#C69E93" d="M17 19h1v1h-1z"/><path fill="#FFEAE3" d="M18 19h1v1h-1zm1 0h1v1h-1zm1 0h1v1h-1z"/><path fill="#A35A44" d="M21 19h1v1h-1z"/><path fill="#FFEAE3" d="M22 19h1v1h-1z"/><path fill="#C69E93" d="M16 20h1v1h-1z"/><path fill="#FFEAE3" d="M17 20h1v1h-1zm1 0h1v1h-1zm1 0h1v1h-1zm1 0h1v1h-1zm1 0h1v1h-1z"/><path fill="#A35A44" d="M22 20h1v1h-1z"/><path fill="#FFEAE3" d="M23 20h1v1h-1zm-6 1h1v1h-1zm1 0h1v1h-1zm1 0h1v1h-1zm1 0h1v1h-1zm1 0h1v1h-1zm1 0h1v1h-1zm-4 1h1v1h-1zm1 0h1v1h-1zm1 0h1v1h-1zm1 0h1v1h-1zm-2 1h1v1h-1z"/></g><path d="M13 13h13v13H13z"/><g fill-rule="nonzero"><path fill="#C69E93" d="M32 18h1v1h-1zm1 0h1v1h-1zm1 0h1v1h-1zm-3 1h1v1h-1z"/><path fill="#FFEAE3" d="M32 19h1v1h-1zm1 0h1v1h-1zm1 0h1v1h-1zm1 0h1v1h-1zm-4 1h1v1h-1zm1 0h1v1h-1zm1 0h1v1h-1zm1 0h1v1h-1z"/><path fill="#C69E93" d="M35 20h1v1h-1z"/><path fill="#FFEAE3" d="M31 21h1v1h-1zm1 0h1v1h-1zm1 0h1v1h-1zm1 0h1v1h-1z"/><path fill="#A35A44" d="M35 21h1v1h-1z"/><path fill="#FFEAE3" d="M31 22h1v1h-1zm1 0h1v1h-1zm1 0h1v1h-1zm1 0h1v1h-1z"/><path fill="#A35A44" d="M35 22h1v1h-1z"/><path fill="#FFEAE3" d="M32 23h1v1h-1zm1 0h1v1h-1zm1 0h1v1h-1z"/><path fill="#C69E93" d="M35 23h1v1h-1z"/></g><path d="M26 13h13v13H26z"/><g fill-rule="nonzero"><path fill="#FFEAE3" d="M45 18h1v1h-1zm1 0h1v1h-1zm1 0h1v1h-1zm1 0h1v1h-1zm-4 1h1v1h-1zm1 0h1v1h-1zm1 0h1v1h-1zm1 0h1v1h-1z"/><path fill="#C69E93" d="M48 19h1v1h-1z"/><path fill="#FFEAE3" d="M44 20h1v1h-1zm1 0h1v1h-1zm1 0h1v1h-1zm1 0h1v1h-1z"/><path fill="#A35A44" d="M48 20h1v1h-1z"/><path fill="#FFEAE3" d="M44 21h1v1h-1zm1 0h1v1h-1zm1 0h1v1h-1zm1 0h1v1h-1z"/><path fill="#A35A44" d="M48 21h1v1h-1z"/><path fill="#FFEAE3" d="M45 22h1v1h-1zm1 0h1v1h-1zm1 0h1v1h-1z"/><path fill="#C69E93" d="M48 22h1v1h-1z"/><path fill="#A35A44" d="M49 22h1v1h-1zm-2 1h1v1h-1zm1 0h1v1h-1zm1 0h1v1h-1z"/></g><path d="M39 13h13v13H39z"/><g fill-rule="nonzero"><path fill="#FFEAE3" d="M58 18h1v1h-1zm1 0h1v1h-1zm1 0h1v1h-1zm1 0h1v1h-1zm-4 1h1v1h-1zm1 0h1v1h-1zm1 0h1v1h-1zm1 0h1v1h-1z"/><path fill="#C69E93" d="M61 19h1v1h-1z"/><path fill="#FFEAE3" d="M57 20h1v1h-1zm1 0h1v1h-1zm1 0h1v1h-1zm1 0h1v1h-1z"/><path fill="#A35A44" d="M61 20h1v1h-1z"/><path fill="#FFEAE3" d="M57 21h1v1h-1zm1 0h1v1h-1zm1 0h1v1h-1zm1 0h1v1h-1z"/><path fill="#A35A44" d="M61 21h1v1h-1z"/><path fill="#FFEAE3" d="M58 22h1v1h-1zm1 0h1v1h-1zm1 0h1v1h-1z"/><path fill="#C69E93" d="M61 22h1v1h-1z"/><path fill="#A35A44" d="M62 22h1v1h-1zm1 0h1v1h-1zm-3 1h1v1h-1zm1 0h1v1h-1zm0 1h1v1h-1zm1-1h1v1h-1zm0 1h1v1h-1zm1-1h1v1h-1zm1 0h1v1h-1zm-1 1h1v1h-1z"/></g><path d="M52 13h13v13H52z"/><g fill-rule="nonzero"><path fill="#FFEAE3" d="M8 43H7v1h1zm-1 0H6v1h1zm-1 0H5v1h1zm3 1H8v1h1z"/><path fill="#A35A44" d="M8 44H7v1h1zm-1 0H6v1h1zm-1 0H5v1h1z"/><path fill="#FFEAE3" d="M5 44H4v1h1z"/><path fill="#C69E93" d="M11 45h-1v1h1zm-1 0H9v1h1z"/><path fill="#FFEAE3" d="M9 45H8v1h1zm-1 0H7v1h1zm-1 0H6v1h1zm-1 0H5v1h1zm-1 0H4v1h1z"/><path fill="#C69E93" d="M11 46h-1v1h1z"/><path fill="#FFEAE3" d="M9 46H8v1h1zm-1 0H7v1h1zm-1 0H6v1h1zm-1 0H5v1h1zm-1 0H4v1h1z"/><path fill="#C69E93" d="M10 47H9v1h1z"/><path fill="#FFEAE3" d="M9 47H8v1h1zm-1 0H7v1h1zm-1 0H6v1h1zm-1 0H5v1h1zm-1 0H4v1h1zm3 1H7v1h1zm-1 0H6v1h1zm-1 0H5v1h1z"/></g><path d="M13 39H0v13h13z"/><g fill-rule="nonzero"><path fill="#FFEAE3" d="M8 30H7v1h1zm-1 0H6v1h1zm-1 0H5v1h1zm3 1H8v1h1z"/><path fill="#A35A44" d="M8 31H7v1h1zm-1 0H6v1h1zm-1 0H5v1h1z"/><path fill="#FFEAE3" d="M5 31H4v1h1z"/><path fill="#C69E93" d="M11 32h-1v1h1zm-1 0H9v1h1z"/><path fill="#FFEAE3" d="M9 32H8v1h1zm-1 0H7v1h1zm-1 0H6v1h1zm-1 0H5v1h1zm-1 0H4v1h1z"/><path fill="#C69E93" d="M11 33h-1v1h1z"/><path fill="#FFEAE3" d="M9 33H8v1h1zm-1 0H7v1h1zm-1 0H6v1h1zm-1 0H5v1h1zm-1 0H4v1h1z"/><path fill="#C69E93" d="M10 34H9v1h1z"/><path fill="#FFEAE3" d="M9 34H8v1h1zm-1 0H7v1h1zm-1 0H6v1h1zm-1 0H5v1h1zm-1 0H4v1h1zm3 1H7v1h1zm-1 0H6v1h1zm-1 0H5v1h1z"/></g><path d="M13 26H0v13h13z"/><g fill-rule="nonzero"><path fill="#FFEAE3" d="M19 43h-1v1h1z"/><path fill="#C69E93" d="M22 44h-1v1h1zm-1 0h-1v1h1z"/><path fill="#FFEAE3" d="M20 44h-1v1h1z"/><path fill="#A35A44" d="M19 44h-1v1h1z"/><path fill="#FFEAE3" d="M18 44h-1v1h1z"/><path fill="#C69E93" d="M22 45h-1v1h1z"/><path fill="#FFEAE3" d="M21 45h-1v1h1zm-1 0h-1v1h1zm-1 0h-1v1h1z"/><path fill="#A35A44" d="M18 45h-1v1h1z"/><path fill="#FFEAE3" d="M17 45h-1v1h1z"/><path fill="#C69E93" d="M23 46h-1v1h1z"/><path fill="#FFEAE3" d="M22 46h-1v1h1zm-1 0h-1v1h1zm-1 0h-1v1h1zm-1 0h-1v1h1zm-1 0h-1v1h1z"/><path fill="#A35A44" d="M17 46h-1v1h1z"/><path fill="#FFEAE3" d="M16 46h-1v1h1zm6 1h-1v1h1zm-1 0h-1v1h1zm-1 0h-1v1h1zm-1 0h-1v1h1zm-1 0h-1v1h1zm-1 0h-1v1h1zm4 1h-1v1h1zm-1 0h-1v1h1zm-1 0h-1v1h1zm-1 0h-1v1h1zm2 1h-1v1h1z"/></g><path d="M26 39H13v13h13z"/><g fill-rule="nonzero"><path fill="#C69E93" d="M33 44h-1v1h1zm-1 0h-1v1h1zm-1 0h-1v1h1zm3 1h-1v1h1z"/><path fill="#FFEAE3" d="M33 45h-1v1h1zm-1 0h-1v1h1zm-1 0h-1v1h1zm-1 0h-1v1h1zm4 1h-1v1h1zm-1 0h-1v1h1zm-1 0h-1v1h1zm-1 0h-1v1h1z"/><path fill="#C69E93" d="M30 46h-1v1h1z"/><path fill="#FFEAE3" d="M34 47h-1v1h1zm-1 0h-1v1h1zm-1 0h-1v1h1zm-1 0h-1v1h1z"/><path fill="#A35A44" d="M30 47h-1v1h1z"/><path fill="#FFEAE3" d="M34 48h-1v1h1zm-1 0h-1v1h1zm-1 0h-1v1h1zm-1 0h-1v1h1z"/><path fill="#A35A44" d="M30 48h-1v1h1z"/><path fill="#FFEAE3" d="M33 49h-1v1h1zm-1 0h-1v1h1zm-1 0h-1v1h1z"/><path fill="#C69E93" d="M30 49h-1v1h1z"/></g><path d="M26 39h13v13H26z"/><g fill-rule="nonzero"><path fill="#FFEAE3" d="M46 44h-1v1h1zm-1 0h-1v1h1zm-1 0h-1v1h1zm-1 0h-1v1h1zm4 1h-1v1h1zm-1 0h-1v1h1zm-1 0h-1v1h1zm-1 0h-1v1h1z"/><path fill="#C69E93" d="M43 45h-1v1h1z"/><path fill="#FFEAE3" d="M47 46h-1v1h1zm-1 0h-1v1h1zm-1 0h-1v1h1zm-1 0h-1v1h1z"/><path fill="#A35A44" d="M43 46h-1v1h1z"/><path fill="#FFEAE3" d="M47 47h-1v1h1zm-1 0h-1v1h1zm-1 0h-1v1h1zm-1 0h-1v1h1z"/><path fill="#A35A44" d="M43 47h-1v1h1z"/><path fill="#FFEAE3" d="M46 48h-1v1h1zm-1 0h-1v1h1zm-1 0h-1v1h1z"/><path fill="#C69E93" d="M43 48h-1v1h1z"/><path fill="#A35A44" d="M42 48h-1v1h1zm2 1h-1v1h1zm-1 0h-1v1h1zm-1 0h-1v1h1z"/></g><path d="M52 39H39v13h13z"/><g fill-rule="nonzero"><path fill="#FFEAE3" d="M59 44h-1v1h1zm-1 0h-1v1h1zm-1 0h-1v1h1zm-1 0h-1v1h1zm4 1h-1v1h1zm-1 0h-1v1h1zm-1 0h-1v1h1zm-1 0h-1v1h1z"/><path fill="#C69E93" d="M56 45h-1v1h1z"/><path fill="#FFEAE3" d="M60 46h-1v1h1zm-1 0h-1v1h1zm-1 0h-1v1h1zm-1 0h-1v1h1z"/><path fill="#A35A44" d="M56 46h-1v1h1z"/><path fill="#FFEAE3" d="M60 47h-1v1h1zm-1 0h-1v1h1zm-1 0h-1v1h1zm-1 0h-1v1h1z"/><path fill="#A35A44" d="M56 47h-1v1h1z"/><path fill="#FFEAE3" d="M59 48h-1v1h1zm-1 0h-1v1h1zm-1 0h-1v1h1z"/><path fill="#C69E93" d="M56 48h-1v1h1z"/><path fill="#A35A44" d="M55 48h-1v1h1zm-1 0h-1v1h1zm3 1h-1v1h1zm-1 0h-1v1h1zm0 1h-1v1h1zm-1-1h-1v1h1zm0 1h-1v1h1zm-1-1h-1v1h1zm-1 0h-1v1h1zm1 1h-1v1h1z"/></g><path d="M65 39H52v13h13z"/></g></svg>